G04 EAGLE Gerber RS-274X export*
G75*
%MOMM*%
%FSLAX34Y34*%
%LPD*%
%INBottom Copper*%
%IPPOS*%
%AMOC8*
5,1,8,0,0,1.08239X$1,22.5*%
G01*
%ADD10C,1.930400*%
%ADD11R,1.930400X1.930400*%
%ADD12C,3.327400*%
%ADD13R,1.879600X1.879600*%
%ADD14C,1.879600*%
%ADD15R,2.032000X2.032000*%
%ADD16C,2.032000*%
%ADD17C,0.806400*%
%ADD18C,0.203200*%
%ADD19R,3.000000X3.000000*%

G36*
X369517Y11187D02*
X369517Y11187D01*
X369672Y11188D01*
X369804Y11207D01*
X369938Y11217D01*
X370089Y11249D01*
X370242Y11271D01*
X370370Y11308D01*
X370502Y11336D01*
X370647Y11388D01*
X370795Y11431D01*
X370917Y11486D01*
X371043Y11532D01*
X371180Y11604D01*
X371321Y11667D01*
X371434Y11738D01*
X371553Y11801D01*
X371678Y11891D01*
X371809Y11973D01*
X371911Y12059D01*
X372020Y12138D01*
X372131Y12244D01*
X372249Y12343D01*
X372339Y12443D01*
X372436Y12536D01*
X372532Y12657D01*
X372635Y12772D01*
X372710Y12883D01*
X372793Y12988D01*
X372871Y13121D01*
X372957Y13249D01*
X373016Y13369D01*
X373084Y13485D01*
X373143Y13628D01*
X373211Y13766D01*
X373252Y13894D01*
X373303Y14018D01*
X373342Y14167D01*
X373390Y14314D01*
X373413Y14446D01*
X373447Y14575D01*
X373464Y14729D01*
X373492Y14881D01*
X373497Y15014D01*
X373512Y15148D01*
X373508Y15302D01*
X373514Y15456D01*
X373500Y15590D01*
X373497Y15724D01*
X373472Y15876D01*
X373456Y16029D01*
X373425Y16159D01*
X373403Y16292D01*
X373356Y16439D01*
X373320Y16589D01*
X373271Y16713D01*
X373230Y16842D01*
X373164Y16981D01*
X373108Y17124D01*
X373041Y17241D01*
X372984Y17362D01*
X372899Y17491D01*
X372823Y17625D01*
X372702Y17791D01*
X372668Y17844D01*
X372646Y17869D01*
X372610Y17918D01*
X372165Y18476D01*
X371019Y20300D01*
X370084Y22241D01*
X369534Y23813D01*
X386204Y23813D01*
X386401Y23827D01*
X386599Y23832D01*
X386688Y23847D01*
X386779Y23853D01*
X386972Y23894D01*
X387167Y23926D01*
X387254Y23954D01*
X387342Y23972D01*
X387528Y24039D01*
X387717Y24099D01*
X387799Y24137D01*
X387836Y24151D01*
X387974Y24087D01*
X388061Y24060D01*
X388145Y24026D01*
X388336Y23976D01*
X388525Y23919D01*
X388615Y23905D01*
X388702Y23882D01*
X388898Y23860D01*
X389094Y23829D01*
X389218Y23824D01*
X389275Y23817D01*
X389332Y23819D01*
X389456Y23813D01*
X406126Y23813D01*
X405576Y22241D01*
X404641Y20300D01*
X403495Y18476D01*
X403050Y17918D01*
X402963Y17791D01*
X402867Y17670D01*
X402799Y17554D01*
X402723Y17444D01*
X402654Y17306D01*
X402576Y17173D01*
X402525Y17049D01*
X402465Y16929D01*
X402415Y16783D01*
X402357Y16640D01*
X402323Y16510D01*
X402280Y16383D01*
X402252Y16232D01*
X402213Y16082D01*
X402198Y15949D01*
X402173Y15817D01*
X402166Y15663D01*
X402148Y15510D01*
X402152Y15376D01*
X402145Y15242D01*
X402159Y15088D01*
X402163Y14934D01*
X402185Y14802D01*
X402197Y14668D01*
X402232Y14518D01*
X402257Y14366D01*
X402298Y14238D01*
X402328Y14107D01*
X402383Y13964D01*
X402430Y13816D01*
X402487Y13695D01*
X402535Y13570D01*
X402610Y13435D01*
X402676Y13296D01*
X402750Y13183D01*
X402815Y13066D01*
X402908Y12943D01*
X402992Y12814D01*
X403081Y12714D01*
X403161Y12606D01*
X403270Y12497D01*
X403372Y12381D01*
X403474Y12294D01*
X403568Y12199D01*
X403691Y12106D01*
X403808Y12005D01*
X403921Y11932D01*
X404028Y11851D01*
X404162Y11776D01*
X404292Y11693D01*
X404414Y11636D01*
X404531Y11571D01*
X404675Y11515D01*
X404815Y11450D01*
X404943Y11411D01*
X405068Y11363D01*
X405218Y11327D01*
X405366Y11282D01*
X405498Y11261D01*
X405629Y11231D01*
X405782Y11217D01*
X405935Y11193D01*
X406140Y11184D01*
X406202Y11178D01*
X406236Y11179D01*
X406296Y11177D01*
X445681Y11177D01*
X445878Y11190D01*
X446076Y11196D01*
X446165Y11210D01*
X446256Y11217D01*
X446449Y11258D01*
X446644Y11290D01*
X446731Y11317D01*
X446819Y11336D01*
X447005Y11403D01*
X447194Y11462D01*
X447276Y11501D01*
X447361Y11532D01*
X447535Y11624D01*
X447714Y11709D01*
X447790Y11758D01*
X447870Y11801D01*
X448030Y11916D01*
X448196Y12025D01*
X448264Y12085D01*
X448337Y12138D01*
X448480Y12274D01*
X448629Y12405D01*
X448688Y12473D01*
X448754Y12536D01*
X448876Y12691D01*
X449005Y12841D01*
X449054Y12917D01*
X449110Y12988D01*
X449210Y13159D01*
X449317Y13325D01*
X449356Y13407D01*
X449401Y13485D01*
X449477Y13668D01*
X449560Y13847D01*
X449586Y13934D01*
X449621Y14018D01*
X449670Y14209D01*
X449728Y14398D01*
X449742Y14488D01*
X449764Y14575D01*
X449787Y14772D01*
X449817Y14967D01*
X449823Y15091D01*
X449829Y15148D01*
X449828Y15205D01*
X449833Y15329D01*
X449833Y162537D01*
X449820Y162734D01*
X449814Y162932D01*
X449800Y163021D01*
X449793Y163112D01*
X449752Y163305D01*
X449720Y163500D01*
X449693Y163587D01*
X449674Y163675D01*
X449607Y163861D01*
X449548Y164050D01*
X449509Y164132D01*
X449478Y164217D01*
X449386Y164391D01*
X449301Y164570D01*
X449252Y164646D01*
X449209Y164726D01*
X449094Y164886D01*
X448985Y165052D01*
X448925Y165120D01*
X448872Y165193D01*
X448736Y165336D01*
X448605Y165485D01*
X448537Y165544D01*
X448474Y165610D01*
X448319Y165732D01*
X448169Y165861D01*
X448093Y165910D01*
X448022Y165966D01*
X447851Y166066D01*
X447685Y166173D01*
X447603Y166212D01*
X447525Y166257D01*
X447342Y166333D01*
X447163Y166416D01*
X447076Y166442D01*
X446992Y166477D01*
X446801Y166526D01*
X446612Y166584D01*
X446522Y166598D01*
X446435Y166620D01*
X446238Y166643D01*
X446043Y166673D01*
X445919Y166679D01*
X445862Y166685D01*
X445805Y166684D01*
X445681Y166689D01*
X418345Y166689D01*
X416507Y167451D01*
X415101Y168857D01*
X414339Y170695D01*
X414339Y202685D01*
X415101Y204523D01*
X416507Y205929D01*
X418345Y206691D01*
X445681Y206691D01*
X445878Y206704D01*
X446076Y206710D01*
X446165Y206724D01*
X446256Y206731D01*
X446449Y206772D01*
X446644Y206804D01*
X446731Y206831D01*
X446819Y206850D01*
X447005Y206917D01*
X447194Y206976D01*
X447276Y207015D01*
X447361Y207046D01*
X447535Y207138D01*
X447714Y207223D01*
X447790Y207272D01*
X447870Y207315D01*
X448030Y207430D01*
X448196Y207539D01*
X448264Y207599D01*
X448337Y207652D01*
X448480Y207788D01*
X448629Y207919D01*
X448688Y207987D01*
X448754Y208050D01*
X448876Y208205D01*
X449005Y208355D01*
X449054Y208431D01*
X449110Y208502D01*
X449210Y208673D01*
X449317Y208839D01*
X449356Y208921D01*
X449401Y208999D01*
X449477Y209182D01*
X449560Y209361D01*
X449586Y209448D01*
X449621Y209532D01*
X449670Y209723D01*
X449728Y209912D01*
X449742Y210002D01*
X449764Y210089D01*
X449787Y210286D01*
X449817Y210481D01*
X449823Y210605D01*
X449829Y210662D01*
X449828Y210719D01*
X449833Y210843D01*
X449833Y361861D01*
X449820Y362058D01*
X449814Y362256D01*
X449800Y362345D01*
X449793Y362436D01*
X449752Y362629D01*
X449720Y362824D01*
X449693Y362911D01*
X449674Y362999D01*
X449607Y363185D01*
X449548Y363374D01*
X449509Y363456D01*
X449478Y363541D01*
X449386Y363715D01*
X449301Y363894D01*
X449252Y363970D01*
X449209Y364050D01*
X449094Y364210D01*
X448985Y364376D01*
X448925Y364444D01*
X448872Y364517D01*
X448736Y364660D01*
X448605Y364809D01*
X448537Y364868D01*
X448474Y364934D01*
X448319Y365056D01*
X448169Y365185D01*
X448093Y365234D01*
X448022Y365290D01*
X447851Y365390D01*
X447685Y365497D01*
X447603Y365536D01*
X447525Y365581D01*
X447342Y365657D01*
X447163Y365740D01*
X447076Y365766D01*
X446992Y365801D01*
X446801Y365850D01*
X446612Y365908D01*
X446522Y365922D01*
X446435Y365944D01*
X446238Y365967D01*
X446043Y365997D01*
X445919Y366003D01*
X445862Y366009D01*
X445805Y366008D01*
X445681Y366013D01*
X400898Y366013D01*
X400621Y365994D01*
X400346Y365976D01*
X400335Y365974D01*
X400323Y365973D01*
X400051Y365916D01*
X399782Y365861D01*
X399771Y365857D01*
X399760Y365854D01*
X399500Y365760D01*
X399239Y365668D01*
X399229Y365662D01*
X399218Y365658D01*
X398975Y365530D01*
X398728Y365402D01*
X398719Y365395D01*
X398709Y365389D01*
X398484Y365227D01*
X398259Y365067D01*
X398251Y365059D01*
X398241Y365052D01*
X398040Y364860D01*
X397841Y364671D01*
X397834Y364662D01*
X397825Y364654D01*
X397653Y364436D01*
X397482Y364221D01*
X397476Y364211D01*
X397468Y364202D01*
X397328Y363963D01*
X397188Y363726D01*
X397183Y363715D01*
X397177Y363705D01*
X397072Y363450D01*
X396965Y363194D01*
X396962Y363183D01*
X396958Y363172D01*
X396889Y362906D01*
X396819Y362637D01*
X396817Y362626D01*
X396814Y362615D01*
X396783Y362342D01*
X396751Y362066D01*
X396751Y362054D01*
X396749Y362042D01*
X396757Y361765D01*
X396762Y361490D01*
X396764Y361478D01*
X396764Y361466D01*
X396810Y361193D01*
X396853Y360921D01*
X396857Y360910D01*
X396859Y360898D01*
X396942Y360632D01*
X397022Y360370D01*
X397027Y360360D01*
X397031Y360348D01*
X397150Y360096D01*
X397266Y359848D01*
X397272Y359839D01*
X397277Y359828D01*
X397430Y359596D01*
X397580Y359365D01*
X397587Y359356D01*
X397594Y359346D01*
X397777Y359137D01*
X397957Y358930D01*
X397966Y358922D01*
X397973Y358913D01*
X398185Y358731D01*
X398391Y358551D01*
X398403Y358543D01*
X398409Y358537D01*
X398435Y358521D01*
X398689Y358345D01*
X398945Y358184D01*
X400629Y356841D01*
X402152Y355318D01*
X403495Y353634D01*
X404641Y351810D01*
X405576Y349869D01*
X406126Y348297D01*
X389456Y348297D01*
X389259Y348283D01*
X389061Y348278D01*
X388972Y348263D01*
X388881Y348257D01*
X388688Y348216D01*
X388493Y348184D01*
X388406Y348156D01*
X388318Y348138D01*
X388132Y348071D01*
X387943Y348011D01*
X387861Y347973D01*
X387824Y347959D01*
X387686Y348023D01*
X387599Y348050D01*
X387515Y348084D01*
X387324Y348134D01*
X387135Y348191D01*
X387045Y348205D01*
X386958Y348228D01*
X386762Y348250D01*
X386566Y348281D01*
X386442Y348286D01*
X386385Y348293D01*
X386328Y348291D01*
X386204Y348297D01*
X369534Y348297D01*
X370084Y349869D01*
X371019Y351810D01*
X372165Y353634D01*
X373508Y355318D01*
X375031Y356841D01*
X376715Y358184D01*
X376971Y358345D01*
X377195Y358509D01*
X377419Y358670D01*
X377427Y358678D01*
X377437Y358685D01*
X377635Y358877D01*
X377835Y359068D01*
X377842Y359077D01*
X377850Y359085D01*
X378021Y359304D01*
X378192Y359520D01*
X378198Y359530D01*
X378205Y359540D01*
X378344Y359781D01*
X378483Y360017D01*
X378487Y360028D01*
X378493Y360038D01*
X378597Y360296D01*
X378702Y360550D01*
X378705Y360561D01*
X378709Y360572D01*
X378777Y360841D01*
X378846Y361108D01*
X378847Y361119D01*
X378850Y361131D01*
X378879Y361405D01*
X378911Y361680D01*
X378910Y361692D01*
X378911Y361703D01*
X378903Y361979D01*
X378896Y362256D01*
X378894Y362267D01*
X378893Y362279D01*
X378847Y362551D01*
X378801Y362824D01*
X378798Y362835D01*
X378796Y362847D01*
X378713Y363107D01*
X378629Y363374D01*
X378624Y363384D01*
X378621Y363395D01*
X378502Y363641D01*
X378383Y363894D01*
X378376Y363904D01*
X378371Y363915D01*
X378220Y364142D01*
X378066Y364376D01*
X378059Y364385D01*
X378052Y364394D01*
X377870Y364599D01*
X377687Y364809D01*
X377678Y364817D01*
X377670Y364825D01*
X377460Y365004D01*
X377251Y365185D01*
X377241Y365191D01*
X377232Y365199D01*
X376999Y365347D01*
X376767Y365497D01*
X376756Y365502D01*
X376746Y365509D01*
X376497Y365623D01*
X376244Y365740D01*
X376233Y365743D01*
X376222Y365748D01*
X375960Y365826D01*
X375693Y365908D01*
X375681Y365909D01*
X375670Y365913D01*
X375400Y365954D01*
X375124Y365997D01*
X375110Y365998D01*
X375101Y365999D01*
X375070Y366000D01*
X374762Y366013D01*
X50823Y366013D01*
X50626Y366000D01*
X50428Y365994D01*
X50339Y365980D01*
X50248Y365973D01*
X50055Y365932D01*
X49860Y365900D01*
X49773Y365873D01*
X49685Y365854D01*
X49499Y365787D01*
X49310Y365728D01*
X49228Y365689D01*
X49143Y365658D01*
X48969Y365566D01*
X48790Y365481D01*
X48714Y365432D01*
X48634Y365389D01*
X48474Y365274D01*
X48308Y365165D01*
X48240Y365105D01*
X48167Y365052D01*
X48024Y364916D01*
X47875Y364785D01*
X47816Y364717D01*
X47750Y364654D01*
X47628Y364499D01*
X47499Y364349D01*
X47450Y364273D01*
X47394Y364202D01*
X47294Y364031D01*
X47187Y363865D01*
X47148Y363783D01*
X47103Y363705D01*
X47027Y363522D01*
X46944Y363343D01*
X46918Y363256D01*
X46883Y363172D01*
X46834Y362981D01*
X46776Y362792D01*
X46762Y362702D01*
X46740Y362615D01*
X46717Y362418D01*
X46687Y362223D01*
X46681Y362099D01*
X46675Y362042D01*
X46676Y361985D01*
X46671Y361861D01*
X46671Y334525D01*
X45909Y332687D01*
X44503Y331281D01*
X42665Y330519D01*
X15329Y330519D01*
X15132Y330506D01*
X14934Y330500D01*
X14845Y330486D01*
X14754Y330479D01*
X14561Y330438D01*
X14366Y330406D01*
X14279Y330379D01*
X14191Y330360D01*
X14005Y330293D01*
X13816Y330234D01*
X13734Y330195D01*
X13649Y330164D01*
X13475Y330072D01*
X13296Y329987D01*
X13220Y329938D01*
X13140Y329895D01*
X12980Y329780D01*
X12814Y329671D01*
X12746Y329611D01*
X12673Y329558D01*
X12530Y329422D01*
X12381Y329291D01*
X12322Y329223D01*
X12256Y329160D01*
X12134Y329005D01*
X12005Y328855D01*
X11956Y328779D01*
X11900Y328708D01*
X11800Y328537D01*
X11693Y328371D01*
X11654Y328289D01*
X11609Y328211D01*
X11533Y328028D01*
X11450Y327849D01*
X11424Y327762D01*
X11389Y327678D01*
X11340Y327487D01*
X11282Y327298D01*
X11268Y327208D01*
X11246Y327121D01*
X11223Y326924D01*
X11193Y326729D01*
X11187Y326605D01*
X11181Y326548D01*
X11182Y326491D01*
X11177Y326367D01*
X11177Y136576D01*
X11180Y136526D01*
X11178Y136477D01*
X11200Y136240D01*
X11217Y136001D01*
X11227Y135953D01*
X11232Y135903D01*
X11286Y135671D01*
X11336Y135438D01*
X11353Y135391D01*
X11364Y135343D01*
X11451Y135120D01*
X11532Y134896D01*
X11555Y134852D01*
X11573Y134806D01*
X11689Y134598D01*
X11801Y134387D01*
X11830Y134346D01*
X11854Y134303D01*
X11998Y134113D01*
X12138Y133919D01*
X12172Y133884D01*
X12202Y133844D01*
X12371Y133676D01*
X12536Y133503D01*
X12575Y133473D01*
X12610Y133438D01*
X12801Y133294D01*
X12988Y133146D01*
X13031Y133121D01*
X13070Y133092D01*
X13279Y132976D01*
X13485Y132855D01*
X13531Y132837D01*
X13574Y132813D01*
X13797Y132727D01*
X14018Y132636D01*
X14066Y132624D01*
X14112Y132606D01*
X14344Y132552D01*
X14575Y132492D01*
X14625Y132487D01*
X14673Y132476D01*
X14910Y132454D01*
X15148Y132427D01*
X15197Y132429D01*
X15247Y132424D01*
X15485Y132436D01*
X15724Y132442D01*
X15772Y132450D01*
X15822Y132453D01*
X16056Y132498D01*
X16292Y132537D01*
X16339Y132552D01*
X16388Y132561D01*
X16613Y132637D01*
X16842Y132709D01*
X16886Y132730D01*
X16933Y132746D01*
X17146Y132853D01*
X17362Y132955D01*
X17404Y132983D01*
X17448Y133005D01*
X17644Y133140D01*
X17844Y133272D01*
X17881Y133304D01*
X17921Y133332D01*
X18097Y133494D01*
X18277Y133651D01*
X18309Y133689D01*
X18345Y133722D01*
X18497Y133907D01*
X18653Y134087D01*
X18680Y134129D01*
X18711Y134167D01*
X18836Y134371D01*
X18965Y134571D01*
X18986Y134616D01*
X19012Y134659D01*
X19165Y134987D01*
X20813Y138966D01*
X24864Y143017D01*
X30156Y145209D01*
X35884Y145209D01*
X41176Y143017D01*
X45227Y138966D01*
X47419Y133674D01*
X47419Y127946D01*
X45227Y122654D01*
X43619Y121046D01*
X43489Y120897D01*
X43353Y120754D01*
X43300Y120680D01*
X43241Y120611D01*
X43133Y120446D01*
X43018Y120285D01*
X42976Y120205D01*
X42927Y120129D01*
X42843Y119949D01*
X42751Y119775D01*
X42721Y119689D01*
X42682Y119607D01*
X42624Y119418D01*
X42557Y119232D01*
X42539Y119143D01*
X42512Y119057D01*
X42481Y118862D01*
X42440Y118668D01*
X42435Y118578D01*
X42420Y118488D01*
X42416Y118291D01*
X42403Y118093D01*
X42409Y118003D01*
X42407Y117912D01*
X42431Y117716D01*
X42445Y117519D01*
X42464Y117430D01*
X42475Y117340D01*
X42525Y117149D01*
X42566Y116956D01*
X42598Y116871D01*
X42620Y116783D01*
X42696Y116601D01*
X42764Y116415D01*
X42807Y116335D01*
X42842Y116251D01*
X42942Y116082D01*
X43035Y115907D01*
X43089Y115833D01*
X43135Y115755D01*
X43258Y115601D01*
X43374Y115441D01*
X43458Y115349D01*
X43494Y115305D01*
X43535Y115266D01*
X43619Y115174D01*
X45227Y113566D01*
X47419Y108274D01*
X47419Y102546D01*
X45239Y97284D01*
X45161Y97050D01*
X45078Y96817D01*
X45069Y96777D01*
X45056Y96738D01*
X45011Y96496D01*
X44961Y96253D01*
X44958Y96212D01*
X44951Y96171D01*
X44939Y95925D01*
X44923Y95678D01*
X44926Y95637D01*
X44924Y95596D01*
X44947Y95350D01*
X44965Y95104D01*
X44974Y95064D01*
X44978Y95023D01*
X45035Y94782D01*
X45087Y94541D01*
X45101Y94502D01*
X45110Y94462D01*
X45200Y94232D01*
X45285Y94000D01*
X45304Y93964D01*
X45319Y93925D01*
X45440Y93709D01*
X45556Y93492D01*
X45580Y93459D01*
X45600Y93422D01*
X45750Y93225D01*
X45895Y93026D01*
X45930Y92987D01*
X45948Y92963D01*
X45991Y92921D01*
X46139Y92759D01*
X46657Y92241D01*
X47419Y90403D01*
X47419Y69617D01*
X46657Y67779D01*
X45251Y66373D01*
X43413Y65611D01*
X22627Y65611D01*
X20789Y66373D01*
X19383Y67779D01*
X19165Y68305D01*
X19143Y68349D01*
X19126Y68396D01*
X19015Y68606D01*
X18908Y68820D01*
X18880Y68861D01*
X18857Y68905D01*
X18718Y69098D01*
X18583Y69295D01*
X18549Y69332D01*
X18520Y69372D01*
X18355Y69544D01*
X18194Y69721D01*
X18156Y69752D01*
X18122Y69788D01*
X17935Y69936D01*
X17751Y70088D01*
X17709Y70114D01*
X17670Y70145D01*
X17464Y70266D01*
X17261Y70391D01*
X17215Y70411D01*
X17173Y70436D01*
X16952Y70527D01*
X16734Y70623D01*
X16686Y70637D01*
X16640Y70655D01*
X16409Y70715D01*
X16179Y70780D01*
X16130Y70787D01*
X16082Y70799D01*
X15845Y70826D01*
X15609Y70858D01*
X15559Y70858D01*
X15510Y70864D01*
X15272Y70858D01*
X15033Y70857D01*
X14984Y70850D01*
X14934Y70849D01*
X14699Y70810D01*
X14462Y70776D01*
X14415Y70763D01*
X14366Y70755D01*
X14138Y70683D01*
X13909Y70618D01*
X13864Y70597D01*
X13816Y70583D01*
X13601Y70480D01*
X13383Y70383D01*
X13340Y70357D01*
X13296Y70336D01*
X13096Y70205D01*
X12894Y70079D01*
X12856Y70047D01*
X12814Y70020D01*
X12635Y69862D01*
X12452Y69709D01*
X12419Y69673D01*
X12381Y69640D01*
X12225Y69459D01*
X12065Y69282D01*
X12037Y69242D01*
X12005Y69204D01*
X11875Y69003D01*
X11741Y68806D01*
X11719Y68762D01*
X11693Y68720D01*
X11592Y68503D01*
X11487Y68289D01*
X11471Y68243D01*
X11450Y68198D01*
X11381Y67969D01*
X11306Y67743D01*
X11297Y67694D01*
X11282Y67646D01*
X11245Y67410D01*
X11202Y67176D01*
X11200Y67127D01*
X11193Y67078D01*
X11177Y66716D01*
X11177Y50823D01*
X11190Y50626D01*
X11196Y50428D01*
X11210Y50339D01*
X11217Y50248D01*
X11258Y50055D01*
X11290Y49860D01*
X11317Y49773D01*
X11336Y49685D01*
X11403Y49499D01*
X11462Y49310D01*
X11501Y49228D01*
X11532Y49143D01*
X11624Y48968D01*
X11709Y48790D01*
X11758Y48714D01*
X11801Y48634D01*
X11916Y48474D01*
X12025Y48308D01*
X12085Y48240D01*
X12138Y48167D01*
X12274Y48024D01*
X12405Y47875D01*
X12473Y47816D01*
X12536Y47750D01*
X12691Y47628D01*
X12841Y47499D01*
X12917Y47450D01*
X12988Y47394D01*
X13159Y47294D01*
X13325Y47187D01*
X13407Y47148D01*
X13485Y47103D01*
X13668Y47027D01*
X13847Y46944D01*
X13934Y46918D01*
X14018Y46883D01*
X14209Y46834D01*
X14398Y46776D01*
X14488Y46762D01*
X14575Y46740D01*
X14772Y46717D01*
X14967Y46687D01*
X15091Y46681D01*
X15148Y46675D01*
X15205Y46676D01*
X15329Y46671D01*
X42665Y46671D01*
X44503Y45909D01*
X45909Y44503D01*
X46671Y42665D01*
X46671Y15329D01*
X46684Y15132D01*
X46690Y14934D01*
X46704Y14845D01*
X46711Y14754D01*
X46752Y14561D01*
X46784Y14366D01*
X46811Y14279D01*
X46830Y14191D01*
X46897Y14005D01*
X46956Y13816D01*
X46995Y13734D01*
X47026Y13649D01*
X47118Y13475D01*
X47203Y13296D01*
X47252Y13220D01*
X47295Y13140D01*
X47410Y12980D01*
X47519Y12814D01*
X47579Y12746D01*
X47632Y12673D01*
X47768Y12530D01*
X47899Y12381D01*
X47967Y12322D01*
X48030Y12256D01*
X48185Y12134D01*
X48335Y12005D01*
X48411Y11956D01*
X48482Y11900D01*
X48653Y11800D01*
X48819Y11693D01*
X48901Y11654D01*
X48979Y11609D01*
X49162Y11533D01*
X49341Y11450D01*
X49428Y11424D01*
X49512Y11389D01*
X49703Y11340D01*
X49892Y11282D01*
X49982Y11268D01*
X50069Y11246D01*
X50266Y11223D01*
X50461Y11193D01*
X50585Y11187D01*
X50642Y11181D01*
X50699Y11182D01*
X50823Y11177D01*
X369364Y11177D01*
X369517Y11187D01*
G37*
%LPC*%
G36*
X160966Y21161D02*
X160966Y21161D01*
X155674Y23353D01*
X152327Y26701D01*
X152178Y26830D01*
X152034Y26967D01*
X151960Y27019D01*
X151892Y27079D01*
X151727Y27186D01*
X151565Y27302D01*
X151485Y27344D01*
X151409Y27393D01*
X151231Y27477D01*
X151055Y27568D01*
X150970Y27599D01*
X150888Y27637D01*
X150699Y27696D01*
X150513Y27762D01*
X150424Y27781D01*
X150337Y27807D01*
X150142Y27839D01*
X149949Y27879D01*
X149858Y27885D01*
X149769Y27899D01*
X149571Y27904D01*
X149374Y27917D01*
X149283Y27910D01*
X149193Y27912D01*
X148997Y27889D01*
X148799Y27874D01*
X148711Y27855D01*
X148621Y27845D01*
X148430Y27795D01*
X148236Y27753D01*
X148151Y27722D01*
X148064Y27699D01*
X147881Y27623D01*
X147695Y27555D01*
X147616Y27512D01*
X147532Y27478D01*
X147361Y27377D01*
X147187Y27284D01*
X147114Y27231D01*
X147036Y27185D01*
X146881Y27061D01*
X146721Y26945D01*
X146630Y26861D01*
X146585Y26826D01*
X146546Y26784D01*
X146454Y26700D01*
X146208Y26454D01*
X144687Y25349D01*
X143013Y24496D01*
X142582Y24356D01*
X142582Y35560D01*
X142582Y46764D01*
X143013Y46624D01*
X144687Y45771D01*
X146208Y44666D01*
X146454Y44420D01*
X146604Y44290D01*
X146747Y44154D01*
X146821Y44101D01*
X146889Y44041D01*
X147055Y43934D01*
X147215Y43819D01*
X147296Y43777D01*
X147372Y43727D01*
X147551Y43643D01*
X147726Y43552D01*
X147811Y43521D01*
X147893Y43483D01*
X148082Y43424D01*
X148268Y43358D01*
X148357Y43339D01*
X148444Y43313D01*
X148638Y43281D01*
X148832Y43241D01*
X148923Y43235D01*
X149012Y43221D01*
X149210Y43216D01*
X149407Y43203D01*
X149497Y43210D01*
X149588Y43208D01*
X149784Y43231D01*
X149982Y43246D01*
X150070Y43265D01*
X150160Y43275D01*
X150351Y43325D01*
X150545Y43367D01*
X150630Y43398D01*
X150717Y43421D01*
X150899Y43497D01*
X151085Y43565D01*
X151166Y43608D01*
X151249Y43642D01*
X151419Y43743D01*
X151594Y43836D01*
X151667Y43889D01*
X151745Y43935D01*
X151899Y44058D01*
X152060Y44175D01*
X152151Y44259D01*
X152196Y44294D01*
X152235Y44335D01*
X152327Y44419D01*
X155674Y47767D01*
X160966Y49959D01*
X166694Y49959D01*
X171956Y47779D01*
X172190Y47701D01*
X172423Y47618D01*
X172463Y47609D01*
X172502Y47596D01*
X172744Y47551D01*
X172987Y47501D01*
X173028Y47498D01*
X173069Y47491D01*
X173315Y47479D01*
X173562Y47463D01*
X173603Y47466D01*
X173644Y47464D01*
X173890Y47487D01*
X174136Y47505D01*
X174176Y47514D01*
X174217Y47518D01*
X174458Y47575D01*
X174699Y47627D01*
X174738Y47641D01*
X174778Y47650D01*
X175008Y47740D01*
X175240Y47825D01*
X175276Y47844D01*
X175315Y47859D01*
X175531Y47980D01*
X175748Y48096D01*
X175781Y48120D01*
X175818Y48140D01*
X176015Y48290D01*
X176214Y48435D01*
X176253Y48470D01*
X176277Y48488D01*
X176319Y48531D01*
X176481Y48679D01*
X176999Y49197D01*
X178837Y49959D01*
X193400Y49959D01*
X193408Y49959D01*
X193416Y49959D01*
X193693Y49979D01*
X193975Y49999D01*
X193983Y50000D01*
X193991Y50001D01*
X194262Y50059D01*
X194538Y50118D01*
X194546Y50121D01*
X194554Y50122D01*
X194818Y50219D01*
X195080Y50314D01*
X195087Y50318D01*
X195095Y50320D01*
X195344Y50453D01*
X195589Y50583D01*
X195596Y50588D01*
X195603Y50591D01*
X195829Y50756D01*
X196056Y50920D01*
X196062Y50925D01*
X196069Y50930D01*
X196336Y51175D01*
X198507Y53346D01*
X198513Y53352D01*
X198519Y53358D01*
X198700Y53568D01*
X198885Y53781D01*
X198890Y53788D01*
X198895Y53794D01*
X199048Y54031D01*
X199199Y54263D01*
X199203Y54271D01*
X199207Y54278D01*
X199325Y54532D01*
X199444Y54785D01*
X199446Y54793D01*
X199450Y54800D01*
X199532Y55069D01*
X199614Y55335D01*
X199615Y55343D01*
X199618Y55351D01*
X199662Y55630D01*
X199706Y55904D01*
X199706Y55912D01*
X199707Y55920D01*
X199723Y56282D01*
X199723Y98203D01*
X199723Y98211D01*
X199723Y98219D01*
X199703Y98494D01*
X199683Y98777D01*
X199682Y98786D01*
X199681Y98794D01*
X199623Y99064D01*
X199564Y99341D01*
X199561Y99349D01*
X199560Y99357D01*
X199463Y99620D01*
X199368Y99882D01*
X199364Y99890D01*
X199362Y99898D01*
X199231Y100143D01*
X199099Y100392D01*
X199094Y100399D01*
X199091Y100406D01*
X198927Y100631D01*
X198762Y100859D01*
X198757Y100865D01*
X198752Y100872D01*
X198507Y101139D01*
X198082Y101563D01*
X196707Y104883D01*
X196707Y108477D01*
X198082Y111797D01*
X200623Y114338D01*
X203943Y115713D01*
X207537Y115713D01*
X210857Y114338D01*
X213398Y111797D01*
X214773Y108477D01*
X214773Y104883D01*
X213398Y101563D01*
X212973Y101139D01*
X212967Y101132D01*
X212961Y101127D01*
X212779Y100916D01*
X212595Y100704D01*
X212590Y100697D01*
X212585Y100691D01*
X212433Y100455D01*
X212281Y100221D01*
X212277Y100214D01*
X212273Y100207D01*
X212154Y99952D01*
X212036Y99700D01*
X212034Y99692D01*
X212030Y99684D01*
X211946Y99409D01*
X211866Y99149D01*
X211865Y99141D01*
X211862Y99133D01*
X211818Y98852D01*
X211774Y98581D01*
X211774Y98573D01*
X211773Y98564D01*
X211757Y98203D01*
X211757Y50873D01*
X210841Y48662D01*
X204845Y42666D01*
X204839Y42660D01*
X204833Y42654D01*
X204649Y42441D01*
X204467Y42231D01*
X204462Y42224D01*
X204457Y42218D01*
X204303Y41980D01*
X204153Y41749D01*
X204149Y41741D01*
X204145Y41734D01*
X204026Y41478D01*
X203908Y41227D01*
X203906Y41219D01*
X203902Y41212D01*
X203820Y40943D01*
X203738Y40677D01*
X203737Y40669D01*
X203734Y40661D01*
X203690Y40380D01*
X203646Y40108D01*
X203646Y40100D01*
X203645Y40092D01*
X203629Y39730D01*
X203629Y25167D01*
X202867Y23329D01*
X201461Y21923D01*
X199623Y21161D01*
X178837Y21161D01*
X176999Y21923D01*
X176481Y22441D01*
X176294Y22603D01*
X176112Y22769D01*
X176078Y22792D01*
X176047Y22819D01*
X175839Y22954D01*
X175635Y23092D01*
X175598Y23111D01*
X175564Y23133D01*
X175340Y23238D01*
X175119Y23347D01*
X175080Y23360D01*
X175042Y23378D01*
X174807Y23450D01*
X174572Y23528D01*
X174531Y23535D01*
X174492Y23548D01*
X174249Y23587D01*
X174005Y23631D01*
X173964Y23633D01*
X173923Y23640D01*
X173678Y23645D01*
X173430Y23655D01*
X173389Y23651D01*
X173347Y23652D01*
X173103Y23623D01*
X172856Y23599D01*
X172816Y23590D01*
X172775Y23585D01*
X172537Y23523D01*
X172296Y23465D01*
X172247Y23447D01*
X172218Y23439D01*
X172162Y23416D01*
X171956Y23341D01*
X166694Y21161D01*
X160966Y21161D01*
G37*
%LPD*%
%LPC*%
G36*
X25675Y262969D02*
X25675Y262969D01*
X23837Y263731D01*
X22431Y265137D01*
X21669Y266975D01*
X21669Y289285D01*
X22431Y291123D01*
X23837Y292529D01*
X25675Y293291D01*
X47985Y293291D01*
X49823Y292529D01*
X51229Y291123D01*
X51991Y289285D01*
X51991Y266975D01*
X51229Y265137D01*
X49823Y263731D01*
X47985Y262969D01*
X25675Y262969D01*
G37*
%LPD*%
%LPC*%
G36*
X191283Y262607D02*
X191283Y262607D01*
X189445Y263369D01*
X188039Y264775D01*
X187277Y266613D01*
X187277Y287907D01*
X188039Y289745D01*
X189445Y291151D01*
X191283Y291913D01*
X212577Y291913D01*
X214415Y291151D01*
X215821Y289745D01*
X216583Y287907D01*
X216583Y266613D01*
X215821Y264775D01*
X214415Y263369D01*
X212577Y262607D01*
X191283Y262607D01*
G37*
%LPD*%
%LPC*%
G36*
X393608Y216979D02*
X393608Y216979D01*
X393608Y229497D01*
X395180Y228947D01*
X397121Y228012D01*
X398945Y226866D01*
X400629Y225523D01*
X402152Y224000D01*
X403495Y222316D01*
X404641Y220492D01*
X405576Y218551D01*
X406126Y216979D01*
X393608Y216979D01*
G37*
%LPD*%
%LPC*%
G36*
X393608Y35369D02*
X393608Y35369D01*
X393608Y47887D01*
X395180Y47337D01*
X397121Y46402D01*
X398945Y45256D01*
X400629Y43913D01*
X402152Y42390D01*
X403495Y40706D01*
X404641Y38882D01*
X405576Y36941D01*
X406126Y35369D01*
X393608Y35369D01*
G37*
%LPD*%
%LPC*%
G36*
X393608Y166687D02*
X393608Y166687D01*
X393608Y179205D01*
X395180Y178655D01*
X397121Y177720D01*
X398945Y176574D01*
X400629Y175231D01*
X402152Y173708D01*
X403495Y172024D01*
X404641Y170200D01*
X405576Y168259D01*
X406126Y166687D01*
X393608Y166687D01*
G37*
%LPD*%
%LPC*%
G36*
X369534Y35369D02*
X369534Y35369D01*
X370084Y36941D01*
X371019Y38882D01*
X372165Y40706D01*
X373508Y42390D01*
X375031Y43913D01*
X376715Y45256D01*
X378539Y46402D01*
X380480Y47337D01*
X382052Y47887D01*
X382052Y35369D01*
X369534Y35369D01*
G37*
%LPD*%
%LPC*%
G36*
X393608Y336741D02*
X393608Y336741D01*
X406126Y336741D01*
X405576Y335169D01*
X404641Y333228D01*
X403495Y331404D01*
X402152Y329720D01*
X400629Y328197D01*
X398945Y326854D01*
X397121Y325708D01*
X395180Y324773D01*
X393608Y324223D01*
X393608Y336741D01*
G37*
%LPD*%
%LPC*%
G36*
X393608Y155131D02*
X393608Y155131D01*
X406126Y155131D01*
X405576Y153559D01*
X404641Y151618D01*
X403495Y149794D01*
X402152Y148110D01*
X400629Y146587D01*
X398945Y145244D01*
X397121Y144098D01*
X395180Y143163D01*
X393608Y142613D01*
X393608Y155131D01*
G37*
%LPD*%
%LPC*%
G36*
X369534Y166687D02*
X369534Y166687D01*
X370084Y168259D01*
X371019Y170200D01*
X372165Y172024D01*
X373508Y173708D01*
X375031Y175231D01*
X376715Y176574D01*
X378539Y177720D01*
X380480Y178655D01*
X382052Y179205D01*
X382052Y166687D01*
X369534Y166687D01*
G37*
%LPD*%
%LPC*%
G36*
X393608Y205423D02*
X393608Y205423D01*
X406126Y205423D01*
X405576Y203851D01*
X404641Y201910D01*
X403495Y200086D01*
X402152Y198402D01*
X400629Y196879D01*
X398945Y195536D01*
X397121Y194390D01*
X395180Y193455D01*
X393608Y192905D01*
X393608Y205423D01*
G37*
%LPD*%
%LPC*%
G36*
X369534Y216979D02*
X369534Y216979D01*
X370084Y218551D01*
X371019Y220492D01*
X372165Y222316D01*
X373508Y224000D01*
X375031Y225523D01*
X376715Y226866D01*
X378539Y228012D01*
X380480Y228947D01*
X382052Y229497D01*
X382052Y216979D01*
X369534Y216979D01*
G37*
%LPD*%
%LPC*%
G36*
X380480Y193455D02*
X380480Y193455D01*
X378539Y194390D01*
X376715Y195536D01*
X375031Y196879D01*
X373508Y198402D01*
X372165Y200086D01*
X371019Y201910D01*
X370084Y203851D01*
X369534Y205423D01*
X382052Y205423D01*
X382052Y192905D01*
X380480Y193455D01*
G37*
%LPD*%
%LPC*%
G36*
X380480Y143163D02*
X380480Y143163D01*
X378539Y144098D01*
X376715Y145244D01*
X375031Y146587D01*
X373508Y148110D01*
X372165Y149794D01*
X371019Y151618D01*
X370084Y153559D01*
X369534Y155131D01*
X382052Y155131D01*
X382052Y142613D01*
X380480Y143163D01*
G37*
%LPD*%
%LPC*%
G36*
X380480Y324773D02*
X380480Y324773D01*
X378539Y325708D01*
X376715Y326854D01*
X375031Y328197D01*
X373508Y329720D01*
X372165Y331404D01*
X371019Y333228D01*
X370084Y335169D01*
X369534Y336741D01*
X382052Y336741D01*
X382052Y324223D01*
X380480Y324773D01*
G37*
%LPD*%
%LPC*%
G36*
X40982Y232282D02*
X40982Y232282D01*
X40982Y240157D01*
X42460Y239545D01*
X43901Y238713D01*
X45222Y237700D01*
X46400Y236522D01*
X47413Y235201D01*
X48245Y233759D01*
X48857Y232282D01*
X40982Y232282D01*
G37*
%LPD*%
%LPC*%
G36*
X40982Y223978D02*
X40982Y223978D01*
X48857Y223978D01*
X48245Y222501D01*
X47413Y221059D01*
X46400Y219738D01*
X45222Y218560D01*
X43901Y217547D01*
X42459Y216715D01*
X40982Y216103D01*
X40982Y223978D01*
G37*
%LPD*%
%LPC*%
G36*
X24803Y232282D02*
X24803Y232282D01*
X25415Y233759D01*
X26247Y235201D01*
X27260Y236522D01*
X28438Y237700D01*
X29759Y238713D01*
X31200Y239545D01*
X32678Y240157D01*
X32678Y232282D01*
X24803Y232282D01*
G37*
%LPD*%
%LPC*%
G36*
X31201Y216715D02*
X31201Y216715D01*
X29759Y217547D01*
X28438Y218560D01*
X27260Y219738D01*
X26247Y221059D01*
X25415Y222501D01*
X24803Y223978D01*
X32678Y223978D01*
X32678Y216103D01*
X31201Y216715D01*
G37*
%LPD*%
%LPC*%
G36*
X206082Y331412D02*
X206082Y331412D01*
X206082Y338737D01*
X207334Y338219D01*
X208718Y337420D01*
X209986Y336447D01*
X211117Y335316D01*
X212090Y334048D01*
X212889Y332664D01*
X213407Y331412D01*
X206082Y331412D01*
G37*
%LPD*%
%LPC*%
G36*
X206082Y323108D02*
X206082Y323108D01*
X213407Y323108D01*
X212889Y321856D01*
X212090Y320472D01*
X211117Y319204D01*
X209986Y318073D01*
X208718Y317100D01*
X207334Y316301D01*
X206082Y315783D01*
X206082Y323108D01*
G37*
%LPD*%
%LPC*%
G36*
X190453Y331412D02*
X190453Y331412D01*
X190971Y332664D01*
X191770Y334048D01*
X192743Y335316D01*
X193874Y336447D01*
X195142Y337420D01*
X196526Y338219D01*
X197778Y338737D01*
X197778Y331412D01*
X190453Y331412D01*
G37*
%LPD*%
%LPC*%
G36*
X196526Y316301D02*
X196526Y316301D01*
X195142Y317100D01*
X193874Y318073D01*
X192743Y319204D01*
X191770Y320472D01*
X190971Y321856D01*
X190453Y323108D01*
X197778Y323108D01*
X197778Y315783D01*
X196526Y316301D01*
G37*
%LPD*%
%LPC*%
G36*
X127226Y39712D02*
X127226Y39712D01*
X127366Y40143D01*
X128219Y41817D01*
X129324Y43337D01*
X130653Y44666D01*
X132173Y45771D01*
X133847Y46624D01*
X134278Y46764D01*
X134278Y39712D01*
X127226Y39712D01*
G37*
%LPD*%
%LPC*%
G36*
X133847Y24496D02*
X133847Y24496D01*
X132173Y25349D01*
X130653Y26454D01*
X129324Y27783D01*
X128219Y29303D01*
X127366Y30977D01*
X127226Y31408D01*
X134278Y31408D01*
X134278Y24356D01*
X133847Y24496D01*
G37*
%LPD*%
D10*
X201930Y327260D03*
D11*
X201930Y277260D03*
D12*
X387830Y160909D03*
X387830Y29591D03*
X387830Y342519D03*
X387830Y211201D03*
D13*
X33020Y80010D03*
D14*
X33020Y105410D03*
X33020Y130810D03*
D13*
X189230Y35560D03*
D14*
X163830Y35560D03*
X138430Y35560D03*
D15*
X36830Y278130D03*
D16*
X36830Y228130D03*
D17*
X205740Y106680D03*
D18*
X205740Y52070D01*
X189230Y35560D01*
D19*
X434340Y186690D03*
X26670Y26670D03*
X26670Y350520D03*
M02*
