G04 EAGLE Gerber RS-274X export*
G75*
%MOMM*%
%FSLAX34Y34*%
%LPD*%
%INSilkscreen Top*%
%IPPOS*%
%AMOC8*
5,1,8,0,0,1.08239X$1,22.5*%
G01*
%ADD10C,0.127000*%
%ADD11C,0.406400*%
%ADD12C,0.203200*%


D10*
X65405Y76835D02*
X65405Y81661D01*
X66746Y81661D01*
X66817Y81659D01*
X66889Y81653D01*
X66959Y81644D01*
X67029Y81631D01*
X67099Y81614D01*
X67167Y81593D01*
X67234Y81569D01*
X67300Y81541D01*
X67364Y81510D01*
X67427Y81475D01*
X67487Y81437D01*
X67546Y81396D01*
X67602Y81352D01*
X67656Y81305D01*
X67707Y81256D01*
X67755Y81203D01*
X67801Y81148D01*
X67843Y81091D01*
X67883Y81031D01*
X67919Y80970D01*
X67952Y80906D01*
X67981Y80841D01*
X68007Y80775D01*
X68030Y80707D01*
X68049Y80638D01*
X68064Y80568D01*
X68075Y80498D01*
X68083Y80427D01*
X68087Y80356D01*
X68087Y80284D01*
X68083Y80213D01*
X68075Y80142D01*
X68064Y80072D01*
X68049Y80002D01*
X68030Y79933D01*
X68007Y79865D01*
X67981Y79799D01*
X67952Y79734D01*
X67919Y79670D01*
X67883Y79609D01*
X67843Y79549D01*
X67801Y79492D01*
X67755Y79437D01*
X67707Y79384D01*
X67656Y79335D01*
X67602Y79288D01*
X67546Y79244D01*
X67487Y79203D01*
X67427Y79165D01*
X67364Y79130D01*
X67300Y79099D01*
X67234Y79071D01*
X67167Y79047D01*
X67099Y79026D01*
X67029Y79009D01*
X66959Y78996D01*
X66889Y78987D01*
X66817Y78981D01*
X66746Y78979D01*
X66746Y78980D02*
X65405Y78980D01*
X70489Y81661D02*
X71562Y76835D01*
X72634Y80052D01*
X73707Y76835D01*
X74779Y81661D01*
X77792Y81661D02*
X77792Y76835D01*
X79401Y78980D02*
X77792Y81661D01*
X79401Y78980D02*
X81009Y81661D01*
X81009Y76835D01*
X87264Y76835D02*
X87264Y81661D01*
X86728Y76835D02*
X87801Y76835D01*
X87801Y81661D02*
X86728Y81661D01*
X90496Y81661D02*
X90496Y76835D01*
X93177Y76835D02*
X90496Y81661D01*
X93177Y81661D02*
X93177Y76835D01*
X65405Y103505D02*
X65405Y108331D01*
X65405Y103505D02*
X67550Y103505D01*
X74224Y103505D02*
X72615Y108331D01*
X75833Y108331D02*
X74224Y103505D01*
X78616Y103505D02*
X78616Y108331D01*
X79957Y108331D01*
X80028Y108329D01*
X80100Y108323D01*
X80170Y108314D01*
X80240Y108301D01*
X80310Y108284D01*
X80378Y108263D01*
X80445Y108239D01*
X80511Y108211D01*
X80575Y108180D01*
X80638Y108145D01*
X80698Y108107D01*
X80757Y108066D01*
X80813Y108022D01*
X80867Y107975D01*
X80918Y107926D01*
X80966Y107873D01*
X81012Y107818D01*
X81054Y107761D01*
X81094Y107701D01*
X81130Y107640D01*
X81163Y107576D01*
X81192Y107511D01*
X81218Y107445D01*
X81241Y107377D01*
X81260Y107308D01*
X81275Y107238D01*
X81286Y107168D01*
X81294Y107097D01*
X81298Y107026D01*
X81298Y106954D01*
X81294Y106883D01*
X81286Y106812D01*
X81275Y106742D01*
X81260Y106672D01*
X81241Y106603D01*
X81218Y106535D01*
X81192Y106469D01*
X81163Y106404D01*
X81130Y106340D01*
X81094Y106279D01*
X81054Y106219D01*
X81012Y106162D01*
X80966Y106107D01*
X80918Y106054D01*
X80867Y106005D01*
X80813Y105958D01*
X80757Y105914D01*
X80698Y105873D01*
X80638Y105835D01*
X80575Y105800D01*
X80511Y105769D01*
X80445Y105741D01*
X80378Y105717D01*
X80310Y105696D01*
X80240Y105679D01*
X80170Y105666D01*
X80100Y105657D01*
X80028Y105651D01*
X79957Y105649D01*
X79957Y105650D02*
X78616Y105650D01*
X80225Y105650D02*
X81298Y103505D01*
X84242Y103505D02*
X86386Y103505D01*
X84242Y103505D02*
X84242Y108331D01*
X86386Y108331D01*
X85850Y106186D02*
X84242Y106186D01*
X88996Y108331D02*
X88996Y103505D01*
X88996Y108331D02*
X91141Y108331D01*
X91141Y106186D02*
X88996Y106186D01*
X65405Y130175D02*
X65405Y135001D01*
X65405Y132856D02*
X68086Y132856D01*
X68086Y135001D02*
X68086Y130175D01*
X75341Y130175D02*
X73732Y135001D01*
X76950Y135001D02*
X75341Y130175D01*
X79733Y130175D02*
X79733Y135001D01*
X81074Y135001D01*
X81145Y134999D01*
X81217Y134993D01*
X81287Y134984D01*
X81357Y134971D01*
X81427Y134954D01*
X81495Y134933D01*
X81562Y134909D01*
X81628Y134881D01*
X81692Y134850D01*
X81755Y134815D01*
X81815Y134777D01*
X81874Y134736D01*
X81930Y134692D01*
X81984Y134645D01*
X82035Y134596D01*
X82083Y134543D01*
X82129Y134488D01*
X82171Y134431D01*
X82211Y134371D01*
X82247Y134310D01*
X82280Y134246D01*
X82309Y134181D01*
X82335Y134115D01*
X82358Y134047D01*
X82377Y133978D01*
X82392Y133908D01*
X82403Y133838D01*
X82411Y133767D01*
X82415Y133696D01*
X82415Y133624D01*
X82411Y133553D01*
X82403Y133482D01*
X82392Y133412D01*
X82377Y133342D01*
X82358Y133273D01*
X82335Y133205D01*
X82309Y133139D01*
X82280Y133074D01*
X82247Y133010D01*
X82211Y132949D01*
X82171Y132889D01*
X82129Y132832D01*
X82083Y132777D01*
X82035Y132724D01*
X81984Y132675D01*
X81930Y132628D01*
X81874Y132584D01*
X81815Y132543D01*
X81755Y132505D01*
X81692Y132470D01*
X81628Y132439D01*
X81562Y132411D01*
X81495Y132387D01*
X81427Y132366D01*
X81357Y132349D01*
X81287Y132336D01*
X81217Y132327D01*
X81145Y132321D01*
X81074Y132319D01*
X81074Y132320D02*
X79733Y132320D01*
X81342Y132320D02*
X82414Y130175D01*
X85358Y130175D02*
X87503Y130175D01*
X85358Y130175D02*
X85358Y135001D01*
X87503Y135001D01*
X86967Y132856D02*
X85358Y132856D01*
X90113Y135001D02*
X90113Y130175D01*
X90113Y135001D02*
X92258Y135001D01*
X92258Y132856D02*
X90113Y132856D01*
X188849Y69215D02*
X193675Y69215D01*
X188849Y69215D02*
X188849Y70556D01*
X188851Y70627D01*
X188857Y70699D01*
X188866Y70769D01*
X188879Y70839D01*
X188896Y70909D01*
X188917Y70977D01*
X188941Y71044D01*
X188969Y71110D01*
X189000Y71174D01*
X189035Y71237D01*
X189073Y71297D01*
X189114Y71356D01*
X189158Y71412D01*
X189205Y71466D01*
X189254Y71517D01*
X189307Y71565D01*
X189362Y71611D01*
X189419Y71653D01*
X189479Y71693D01*
X189540Y71729D01*
X189604Y71762D01*
X189669Y71791D01*
X189735Y71817D01*
X189803Y71840D01*
X189872Y71859D01*
X189942Y71874D01*
X190012Y71885D01*
X190083Y71893D01*
X190154Y71897D01*
X190226Y71897D01*
X190297Y71893D01*
X190368Y71885D01*
X190438Y71874D01*
X190508Y71859D01*
X190577Y71840D01*
X190645Y71817D01*
X190711Y71791D01*
X190776Y71762D01*
X190840Y71729D01*
X190901Y71693D01*
X190961Y71653D01*
X191018Y71611D01*
X191073Y71565D01*
X191126Y71517D01*
X191175Y71466D01*
X191222Y71412D01*
X191266Y71356D01*
X191307Y71297D01*
X191345Y71237D01*
X191380Y71174D01*
X191411Y71110D01*
X191439Y71044D01*
X191463Y70977D01*
X191484Y70909D01*
X191501Y70839D01*
X191514Y70769D01*
X191523Y70699D01*
X191529Y70627D01*
X191531Y70556D01*
X191530Y70556D02*
X191530Y69215D01*
X188849Y74299D02*
X193675Y75372D01*
X190458Y76444D01*
X193675Y77517D01*
X188849Y78589D01*
X188849Y81602D02*
X193675Y81602D01*
X191530Y83211D02*
X188849Y81602D01*
X191530Y83211D02*
X188849Y84819D01*
X193675Y84819D01*
X192334Y90831D02*
X190190Y90831D01*
X190119Y90833D01*
X190047Y90839D01*
X189977Y90848D01*
X189907Y90861D01*
X189837Y90878D01*
X189769Y90899D01*
X189702Y90923D01*
X189636Y90951D01*
X189572Y90982D01*
X189509Y91017D01*
X189449Y91055D01*
X189390Y91096D01*
X189334Y91140D01*
X189280Y91187D01*
X189229Y91236D01*
X189181Y91289D01*
X189135Y91344D01*
X189093Y91401D01*
X189053Y91461D01*
X189017Y91522D01*
X188984Y91586D01*
X188955Y91651D01*
X188929Y91717D01*
X188906Y91785D01*
X188887Y91854D01*
X188872Y91924D01*
X188861Y91994D01*
X188853Y92065D01*
X188849Y92136D01*
X188849Y92208D01*
X188853Y92279D01*
X188861Y92350D01*
X188872Y92420D01*
X188887Y92490D01*
X188906Y92559D01*
X188929Y92627D01*
X188955Y92693D01*
X188984Y92758D01*
X189017Y92822D01*
X189053Y92883D01*
X189093Y92943D01*
X189135Y93000D01*
X189181Y93055D01*
X189229Y93108D01*
X189280Y93157D01*
X189334Y93204D01*
X189390Y93248D01*
X189449Y93289D01*
X189509Y93327D01*
X189572Y93362D01*
X189636Y93393D01*
X189702Y93421D01*
X189769Y93445D01*
X189837Y93466D01*
X189907Y93483D01*
X189977Y93496D01*
X190047Y93505D01*
X190119Y93511D01*
X190190Y93513D01*
X190190Y93512D02*
X192334Y93512D01*
X192334Y93513D02*
X192405Y93511D01*
X192477Y93505D01*
X192547Y93496D01*
X192617Y93483D01*
X192687Y93466D01*
X192755Y93445D01*
X192822Y93421D01*
X192888Y93393D01*
X192952Y93362D01*
X193015Y93327D01*
X193075Y93289D01*
X193134Y93248D01*
X193190Y93204D01*
X193244Y93157D01*
X193295Y93108D01*
X193343Y93055D01*
X193389Y93000D01*
X193431Y92943D01*
X193471Y92883D01*
X193507Y92822D01*
X193540Y92758D01*
X193569Y92693D01*
X193595Y92627D01*
X193618Y92559D01*
X193637Y92490D01*
X193652Y92420D01*
X193663Y92350D01*
X193671Y92279D01*
X193675Y92208D01*
X193675Y92136D01*
X193671Y92065D01*
X193663Y91994D01*
X193652Y91924D01*
X193637Y91854D01*
X193618Y91785D01*
X193595Y91717D01*
X193569Y91651D01*
X193540Y91586D01*
X193507Y91522D01*
X193471Y91461D01*
X193431Y91401D01*
X193389Y91344D01*
X193343Y91289D01*
X193295Y91236D01*
X193244Y91187D01*
X193190Y91140D01*
X193134Y91096D01*
X193075Y91055D01*
X193015Y91017D01*
X192952Y90982D01*
X192888Y90951D01*
X192822Y90923D01*
X192755Y90899D01*
X192687Y90878D01*
X192617Y90861D01*
X192547Y90848D01*
X192477Y90839D01*
X192405Y90833D01*
X192334Y90831D01*
X192334Y96500D02*
X188849Y96500D01*
X192334Y96500D02*
X192405Y96502D01*
X192477Y96508D01*
X192547Y96517D01*
X192617Y96530D01*
X192687Y96547D01*
X192755Y96568D01*
X192822Y96592D01*
X192888Y96620D01*
X192952Y96651D01*
X193015Y96686D01*
X193075Y96724D01*
X193134Y96765D01*
X193190Y96809D01*
X193244Y96856D01*
X193295Y96905D01*
X193343Y96958D01*
X193389Y97013D01*
X193431Y97070D01*
X193471Y97130D01*
X193507Y97191D01*
X193540Y97255D01*
X193569Y97320D01*
X193595Y97386D01*
X193618Y97454D01*
X193637Y97523D01*
X193652Y97593D01*
X193663Y97663D01*
X193671Y97734D01*
X193675Y97805D01*
X193675Y97877D01*
X193671Y97948D01*
X193663Y98019D01*
X193652Y98089D01*
X193637Y98159D01*
X193618Y98228D01*
X193595Y98296D01*
X193569Y98362D01*
X193540Y98427D01*
X193507Y98491D01*
X193471Y98552D01*
X193431Y98612D01*
X193389Y98669D01*
X193343Y98724D01*
X193295Y98777D01*
X193244Y98826D01*
X193190Y98873D01*
X193134Y98917D01*
X193075Y98958D01*
X193015Y98996D01*
X192952Y99031D01*
X192888Y99062D01*
X192822Y99090D01*
X192755Y99114D01*
X192687Y99135D01*
X192617Y99152D01*
X192547Y99165D01*
X192477Y99174D01*
X192405Y99180D01*
X192334Y99182D01*
X188849Y99182D01*
X188849Y103144D02*
X193675Y103144D01*
X188849Y101804D02*
X188849Y104485D01*
X167005Y70824D02*
X167005Y69215D01*
X167005Y70824D02*
X167003Y70889D01*
X166997Y70953D01*
X166987Y71017D01*
X166974Y71081D01*
X166956Y71143D01*
X166935Y71204D01*
X166911Y71264D01*
X166882Y71322D01*
X166850Y71379D01*
X166815Y71433D01*
X166777Y71485D01*
X166735Y71535D01*
X166691Y71582D01*
X166644Y71626D01*
X166594Y71668D01*
X166542Y71706D01*
X166488Y71741D01*
X166431Y71773D01*
X166373Y71802D01*
X166313Y71826D01*
X166252Y71847D01*
X166190Y71865D01*
X166126Y71878D01*
X166062Y71888D01*
X165998Y71894D01*
X165933Y71896D01*
X165396Y71896D01*
X165331Y71894D01*
X165267Y71888D01*
X165203Y71878D01*
X165139Y71865D01*
X165077Y71847D01*
X165016Y71826D01*
X164956Y71802D01*
X164898Y71773D01*
X164841Y71741D01*
X164787Y71706D01*
X164735Y71668D01*
X164685Y71626D01*
X164638Y71582D01*
X164594Y71535D01*
X164552Y71485D01*
X164514Y71433D01*
X164479Y71379D01*
X164447Y71322D01*
X164418Y71264D01*
X164394Y71204D01*
X164373Y71143D01*
X164355Y71081D01*
X164342Y71017D01*
X164332Y70953D01*
X164326Y70889D01*
X164324Y70824D01*
X164324Y69215D01*
X162179Y69215D01*
X162179Y71896D01*
X162179Y74433D02*
X167005Y76042D01*
X162179Y77651D01*
X137654Y71896D02*
X137654Y71092D01*
X137654Y71896D02*
X140335Y71896D01*
X140335Y70287D01*
X140333Y70222D01*
X140327Y70158D01*
X140317Y70094D01*
X140304Y70030D01*
X140286Y69968D01*
X140265Y69907D01*
X140241Y69847D01*
X140212Y69789D01*
X140180Y69732D01*
X140145Y69678D01*
X140107Y69626D01*
X140065Y69576D01*
X140021Y69529D01*
X139974Y69485D01*
X139924Y69443D01*
X139872Y69405D01*
X139818Y69370D01*
X139761Y69338D01*
X139703Y69309D01*
X139643Y69285D01*
X139582Y69264D01*
X139520Y69246D01*
X139456Y69233D01*
X139392Y69223D01*
X139328Y69217D01*
X139263Y69215D01*
X136581Y69215D01*
X136516Y69217D01*
X136452Y69223D01*
X136388Y69233D01*
X136324Y69246D01*
X136262Y69264D01*
X136201Y69285D01*
X136141Y69310D01*
X136082Y69338D01*
X136026Y69370D01*
X135971Y69405D01*
X135919Y69443D01*
X135869Y69485D01*
X135822Y69529D01*
X135778Y69576D01*
X135736Y69626D01*
X135698Y69678D01*
X135663Y69733D01*
X135631Y69789D01*
X135603Y69848D01*
X135578Y69907D01*
X135557Y69969D01*
X135539Y70031D01*
X135526Y70095D01*
X135516Y70159D01*
X135510Y70223D01*
X135508Y70288D01*
X135509Y70287D02*
X135509Y71896D01*
X135509Y75067D02*
X140335Y75067D01*
X140335Y77748D02*
X135509Y75067D01*
X135509Y77748D02*
X140335Y77748D01*
X140335Y80919D02*
X135509Y80919D01*
X135509Y82260D01*
X135511Y82330D01*
X135516Y82400D01*
X135526Y82470D01*
X135538Y82539D01*
X135555Y82607D01*
X135575Y82674D01*
X135598Y82741D01*
X135625Y82805D01*
X135655Y82869D01*
X135689Y82931D01*
X135725Y82990D01*
X135765Y83048D01*
X135808Y83104D01*
X135853Y83157D01*
X135902Y83208D01*
X135953Y83257D01*
X136006Y83302D01*
X136062Y83345D01*
X136120Y83385D01*
X136180Y83421D01*
X136241Y83455D01*
X136305Y83485D01*
X136369Y83512D01*
X136436Y83535D01*
X136503Y83555D01*
X136571Y83572D01*
X136640Y83584D01*
X136710Y83594D01*
X136780Y83599D01*
X136850Y83601D01*
X136850Y83600D02*
X138994Y83600D01*
X138994Y83601D02*
X139064Y83599D01*
X139134Y83594D01*
X139204Y83584D01*
X139273Y83572D01*
X139341Y83555D01*
X139408Y83535D01*
X139475Y83512D01*
X139539Y83485D01*
X139603Y83455D01*
X139665Y83421D01*
X139724Y83385D01*
X139782Y83345D01*
X139838Y83302D01*
X139891Y83257D01*
X139942Y83208D01*
X139991Y83157D01*
X140036Y83104D01*
X140079Y83048D01*
X140119Y82990D01*
X140155Y82930D01*
X140189Y82869D01*
X140219Y82805D01*
X140246Y82741D01*
X140269Y82674D01*
X140289Y82607D01*
X140306Y82539D01*
X140318Y82470D01*
X140328Y82400D01*
X140333Y82330D01*
X140335Y82260D01*
X140335Y80919D01*
D11*
X131572Y181102D02*
X136884Y197038D01*
X142196Y181102D01*
X140868Y185086D02*
X132900Y185086D01*
X150547Y181102D02*
X150547Y191726D01*
X158515Y191726D01*
X158617Y191724D01*
X158718Y191718D01*
X158820Y191708D01*
X158920Y191695D01*
X159021Y191677D01*
X159120Y191656D01*
X159219Y191631D01*
X159316Y191602D01*
X159413Y191570D01*
X159508Y191533D01*
X159601Y191494D01*
X159694Y191450D01*
X159784Y191403D01*
X159872Y191353D01*
X159959Y191299D01*
X160043Y191242D01*
X160125Y191182D01*
X160205Y191119D01*
X160282Y191053D01*
X160357Y190984D01*
X160429Y190912D01*
X160498Y190837D01*
X160564Y190760D01*
X160627Y190680D01*
X160687Y190598D01*
X160744Y190514D01*
X160798Y190427D01*
X160848Y190339D01*
X160895Y190249D01*
X160939Y190156D01*
X160978Y190063D01*
X161015Y189968D01*
X161047Y189871D01*
X161076Y189774D01*
X161101Y189675D01*
X161122Y189576D01*
X161140Y189475D01*
X161153Y189375D01*
X161163Y189273D01*
X161169Y189172D01*
X161171Y189070D01*
X161171Y181102D01*
X155859Y181102D02*
X155859Y191726D01*
X170858Y197038D02*
X170858Y181102D01*
X175285Y181102D01*
X175387Y181104D01*
X175488Y181110D01*
X175590Y181120D01*
X175690Y181133D01*
X175791Y181151D01*
X175890Y181172D01*
X175989Y181197D01*
X176086Y181226D01*
X176183Y181258D01*
X176278Y181295D01*
X176371Y181334D01*
X176464Y181378D01*
X176554Y181425D01*
X176642Y181475D01*
X176729Y181529D01*
X176813Y181586D01*
X176895Y181646D01*
X176975Y181709D01*
X177052Y181775D01*
X177127Y181844D01*
X177199Y181916D01*
X177268Y181991D01*
X177334Y182068D01*
X177397Y182148D01*
X177457Y182230D01*
X177514Y182314D01*
X177568Y182401D01*
X177618Y182489D01*
X177665Y182579D01*
X177709Y182672D01*
X177748Y182765D01*
X177785Y182860D01*
X177817Y182957D01*
X177846Y183054D01*
X177871Y183153D01*
X177892Y183252D01*
X177910Y183353D01*
X177923Y183453D01*
X177933Y183555D01*
X177939Y183656D01*
X177941Y183758D01*
X177941Y189070D01*
X177939Y189172D01*
X177933Y189273D01*
X177923Y189375D01*
X177910Y189475D01*
X177892Y189576D01*
X177871Y189675D01*
X177846Y189774D01*
X177817Y189871D01*
X177785Y189968D01*
X177748Y190063D01*
X177709Y190156D01*
X177665Y190249D01*
X177618Y190339D01*
X177568Y190427D01*
X177514Y190514D01*
X177457Y190598D01*
X177397Y190680D01*
X177334Y190760D01*
X177268Y190837D01*
X177199Y190912D01*
X177127Y190984D01*
X177052Y191053D01*
X176975Y191119D01*
X176895Y191182D01*
X176813Y191242D01*
X176729Y191299D01*
X176642Y191353D01*
X176554Y191403D01*
X176464Y191450D01*
X176371Y191494D01*
X176278Y191533D01*
X176183Y191570D01*
X176086Y191602D01*
X175989Y191631D01*
X175890Y191656D01*
X175791Y191677D01*
X175690Y191695D01*
X175590Y191708D01*
X175488Y191718D01*
X175387Y191724D01*
X175285Y191726D01*
X170858Y191726D01*
X185184Y191726D02*
X185184Y181102D01*
X184741Y196153D02*
X184741Y197038D01*
X185627Y197038D01*
X185627Y196153D01*
X184741Y196153D01*
X192603Y197038D02*
X192603Y183758D01*
X192605Y183656D01*
X192611Y183555D01*
X192621Y183453D01*
X192634Y183353D01*
X192652Y183252D01*
X192673Y183153D01*
X192698Y183054D01*
X192727Y182957D01*
X192759Y182860D01*
X192796Y182765D01*
X192835Y182672D01*
X192879Y182579D01*
X192926Y182489D01*
X192976Y182401D01*
X193030Y182314D01*
X193087Y182230D01*
X193147Y182148D01*
X193210Y182068D01*
X193276Y181991D01*
X193345Y181916D01*
X193417Y181844D01*
X193492Y181775D01*
X193569Y181709D01*
X193649Y181646D01*
X193731Y181586D01*
X193815Y181529D01*
X193902Y181475D01*
X193990Y181425D01*
X194080Y181378D01*
X194173Y181334D01*
X194266Y181295D01*
X194361Y181258D01*
X194458Y181226D01*
X194555Y181197D01*
X194654Y181172D01*
X194753Y181151D01*
X194854Y181133D01*
X194954Y181120D01*
X195056Y181110D01*
X195157Y181104D01*
X195259Y181102D01*
X201284Y181102D02*
X201284Y191726D01*
X200841Y196153D02*
X200841Y197038D01*
X201727Y197038D01*
X201727Y196153D01*
X200841Y196153D01*
X211183Y181102D02*
X215610Y181102D01*
X211183Y181102D02*
X211081Y181104D01*
X210980Y181110D01*
X210878Y181120D01*
X210778Y181133D01*
X210677Y181151D01*
X210578Y181172D01*
X210479Y181197D01*
X210382Y181226D01*
X210285Y181258D01*
X210190Y181295D01*
X210097Y181334D01*
X210004Y181378D01*
X209914Y181425D01*
X209826Y181475D01*
X209739Y181529D01*
X209655Y181586D01*
X209573Y181646D01*
X209493Y181709D01*
X209416Y181775D01*
X209341Y181844D01*
X209269Y181916D01*
X209200Y181991D01*
X209134Y182068D01*
X209071Y182148D01*
X209011Y182230D01*
X208954Y182314D01*
X208900Y182401D01*
X208850Y182489D01*
X208803Y182579D01*
X208759Y182672D01*
X208720Y182765D01*
X208683Y182860D01*
X208651Y182957D01*
X208622Y183054D01*
X208597Y183153D01*
X208576Y183252D01*
X208558Y183353D01*
X208545Y183453D01*
X208535Y183555D01*
X208529Y183656D01*
X208527Y183758D01*
X208527Y189070D01*
X208529Y189172D01*
X208535Y189273D01*
X208545Y189375D01*
X208558Y189475D01*
X208576Y189576D01*
X208597Y189675D01*
X208622Y189774D01*
X208651Y189871D01*
X208683Y189968D01*
X208720Y190063D01*
X208759Y190156D01*
X208803Y190249D01*
X208850Y190339D01*
X208900Y190427D01*
X208954Y190514D01*
X209011Y190598D01*
X209071Y190680D01*
X209134Y190760D01*
X209200Y190837D01*
X209269Y190912D01*
X209341Y190984D01*
X209416Y191053D01*
X209493Y191119D01*
X209573Y191182D01*
X209655Y191242D01*
X209739Y191299D01*
X209826Y191353D01*
X209914Y191403D01*
X210004Y191450D01*
X210097Y191494D01*
X210190Y191533D01*
X210285Y191570D01*
X210382Y191602D01*
X210479Y191631D01*
X210578Y191656D01*
X210677Y191677D01*
X210778Y191695D01*
X210878Y191708D01*
X210980Y191718D01*
X211081Y191724D01*
X211183Y191726D01*
X215610Y191726D01*
X215610Y178446D01*
X215608Y178344D01*
X215602Y178243D01*
X215592Y178141D01*
X215579Y178041D01*
X215561Y177940D01*
X215540Y177841D01*
X215515Y177742D01*
X215486Y177645D01*
X215454Y177548D01*
X215417Y177453D01*
X215378Y177360D01*
X215334Y177267D01*
X215287Y177177D01*
X215237Y177089D01*
X215183Y177002D01*
X215126Y176918D01*
X215066Y176836D01*
X215003Y176756D01*
X214937Y176679D01*
X214868Y176604D01*
X214796Y176532D01*
X214721Y176463D01*
X214644Y176397D01*
X214564Y176334D01*
X214482Y176274D01*
X214398Y176217D01*
X214311Y176163D01*
X214223Y176113D01*
X214133Y176066D01*
X214040Y176022D01*
X213947Y175983D01*
X213852Y175946D01*
X213755Y175914D01*
X213658Y175885D01*
X213559Y175860D01*
X213460Y175839D01*
X213359Y175821D01*
X213259Y175808D01*
X213157Y175798D01*
X213056Y175792D01*
X212954Y175790D01*
X209412Y175790D01*
X224768Y181102D02*
X224768Y197038D01*
X224768Y191726D02*
X229194Y191726D01*
X229296Y191724D01*
X229397Y191718D01*
X229499Y191708D01*
X229599Y191695D01*
X229700Y191677D01*
X229799Y191656D01*
X229898Y191631D01*
X229995Y191602D01*
X230092Y191570D01*
X230187Y191533D01*
X230280Y191494D01*
X230373Y191450D01*
X230463Y191403D01*
X230551Y191353D01*
X230638Y191299D01*
X230722Y191242D01*
X230804Y191182D01*
X230884Y191119D01*
X230961Y191053D01*
X231036Y190984D01*
X231108Y190912D01*
X231177Y190837D01*
X231243Y190760D01*
X231306Y190680D01*
X231366Y190598D01*
X231423Y190514D01*
X231477Y190427D01*
X231527Y190339D01*
X231574Y190249D01*
X231618Y190156D01*
X231657Y190063D01*
X231694Y189968D01*
X231726Y189871D01*
X231755Y189774D01*
X231780Y189675D01*
X231801Y189576D01*
X231819Y189475D01*
X231832Y189375D01*
X231842Y189273D01*
X231848Y189172D01*
X231850Y189070D01*
X231850Y181102D01*
X238652Y191726D02*
X243964Y191726D01*
X240423Y197038D02*
X240423Y183758D01*
X240425Y183656D01*
X240431Y183555D01*
X240441Y183453D01*
X240454Y183353D01*
X240472Y183252D01*
X240493Y183153D01*
X240518Y183054D01*
X240547Y182957D01*
X240579Y182860D01*
X240616Y182765D01*
X240655Y182672D01*
X240699Y182579D01*
X240746Y182489D01*
X240796Y182401D01*
X240850Y182314D01*
X240907Y182230D01*
X240967Y182148D01*
X241030Y182068D01*
X241096Y181991D01*
X241165Y181916D01*
X241237Y181844D01*
X241312Y181775D01*
X241389Y181709D01*
X241469Y181646D01*
X241551Y181586D01*
X241635Y181529D01*
X241722Y181475D01*
X241810Y181425D01*
X241900Y181378D01*
X241993Y181334D01*
X242086Y181295D01*
X242181Y181258D01*
X242278Y181226D01*
X242375Y181197D01*
X242474Y181172D01*
X242573Y181151D01*
X242674Y181133D01*
X242774Y181120D01*
X242876Y181110D01*
X242977Y181104D01*
X243079Y181102D01*
X243964Y181102D01*
X261257Y181102D02*
X261257Y197038D01*
X265684Y197038D01*
X265815Y197036D01*
X265946Y197030D01*
X266077Y197021D01*
X266208Y197007D01*
X266338Y196989D01*
X266467Y196968D01*
X266596Y196943D01*
X266724Y196914D01*
X266851Y196881D01*
X266977Y196845D01*
X267102Y196805D01*
X267225Y196761D01*
X267348Y196713D01*
X267469Y196662D01*
X267588Y196608D01*
X267706Y196550D01*
X267821Y196488D01*
X267935Y196423D01*
X268047Y196354D01*
X268157Y196283D01*
X268265Y196208D01*
X268370Y196130D01*
X268473Y196049D01*
X268574Y195964D01*
X268672Y195877D01*
X268768Y195787D01*
X268860Y195695D01*
X268950Y195599D01*
X269038Y195501D01*
X269122Y195400D01*
X269203Y195297D01*
X269281Y195192D01*
X269356Y195084D01*
X269427Y194974D01*
X269496Y194862D01*
X269561Y194748D01*
X269623Y194632D01*
X269681Y194515D01*
X269735Y194396D01*
X269786Y194275D01*
X269834Y194152D01*
X269878Y194029D01*
X269918Y193904D01*
X269954Y193778D01*
X269987Y193651D01*
X270016Y193523D01*
X270041Y193394D01*
X270062Y193265D01*
X270080Y193135D01*
X270094Y193004D01*
X270103Y192873D01*
X270109Y192742D01*
X270111Y192611D01*
X270110Y192611D02*
X270110Y185529D01*
X270111Y185529D02*
X270109Y185398D01*
X270103Y185267D01*
X270094Y185136D01*
X270080Y185005D01*
X270062Y184875D01*
X270041Y184746D01*
X270016Y184617D01*
X269987Y184489D01*
X269954Y184362D01*
X269918Y184236D01*
X269878Y184111D01*
X269834Y183988D01*
X269786Y183865D01*
X269735Y183744D01*
X269681Y183625D01*
X269623Y183508D01*
X269561Y183392D01*
X269496Y183278D01*
X269427Y183166D01*
X269356Y183056D01*
X269281Y182948D01*
X269203Y182843D01*
X269122Y182740D01*
X269038Y182639D01*
X268950Y182541D01*
X268860Y182445D01*
X268768Y182353D01*
X268672Y182263D01*
X268574Y182176D01*
X268473Y182091D01*
X268370Y182010D01*
X268265Y181932D01*
X268157Y181857D01*
X268047Y181786D01*
X267935Y181717D01*
X267821Y181652D01*
X267706Y181590D01*
X267588Y181532D01*
X267469Y181478D01*
X267348Y181427D01*
X267226Y181379D01*
X267102Y181335D01*
X266977Y181295D01*
X266851Y181259D01*
X266724Y181226D01*
X266596Y181197D01*
X266467Y181172D01*
X266338Y181151D01*
X266208Y181133D01*
X266077Y181119D01*
X265946Y181110D01*
X265815Y181104D01*
X265684Y181102D01*
X261257Y181102D01*
X279559Y181102D02*
X279559Y191726D01*
X284871Y191726D01*
X284871Y189955D01*
X290409Y191726D02*
X290409Y181102D01*
X289966Y196153D02*
X289966Y197038D01*
X290851Y197038D01*
X290851Y196153D01*
X289966Y196153D01*
X297217Y191726D02*
X300759Y181102D01*
X304300Y191726D01*
X314248Y181102D02*
X318675Y181102D01*
X314248Y181102D02*
X314146Y181104D01*
X314045Y181110D01*
X313943Y181120D01*
X313843Y181133D01*
X313742Y181151D01*
X313643Y181172D01*
X313544Y181197D01*
X313447Y181226D01*
X313350Y181258D01*
X313255Y181295D01*
X313162Y181334D01*
X313069Y181378D01*
X312979Y181425D01*
X312891Y181475D01*
X312804Y181529D01*
X312720Y181586D01*
X312638Y181646D01*
X312558Y181709D01*
X312481Y181775D01*
X312406Y181844D01*
X312334Y181916D01*
X312265Y181991D01*
X312199Y182068D01*
X312136Y182148D01*
X312076Y182230D01*
X312019Y182314D01*
X311965Y182401D01*
X311915Y182489D01*
X311868Y182579D01*
X311824Y182672D01*
X311785Y182765D01*
X311748Y182860D01*
X311716Y182957D01*
X311687Y183054D01*
X311662Y183153D01*
X311641Y183252D01*
X311623Y183353D01*
X311610Y183453D01*
X311600Y183555D01*
X311594Y183656D01*
X311592Y183758D01*
X311592Y188185D01*
X311593Y188185D02*
X311595Y188303D01*
X311601Y188422D01*
X311611Y188539D01*
X311625Y188657D01*
X311642Y188774D01*
X311664Y188890D01*
X311689Y189006D01*
X311719Y189121D01*
X311752Y189234D01*
X311789Y189347D01*
X311830Y189458D01*
X311874Y189567D01*
X311922Y189676D01*
X311974Y189782D01*
X312029Y189887D01*
X312087Y189990D01*
X312149Y190090D01*
X312215Y190189D01*
X312283Y190285D01*
X312355Y190380D01*
X312430Y190471D01*
X312508Y190560D01*
X312589Y190647D01*
X312672Y190730D01*
X312759Y190811D01*
X312848Y190889D01*
X312939Y190964D01*
X313034Y191036D01*
X313130Y191104D01*
X313229Y191170D01*
X313329Y191232D01*
X313432Y191290D01*
X313537Y191345D01*
X313643Y191397D01*
X313752Y191445D01*
X313861Y191489D01*
X313972Y191530D01*
X314085Y191567D01*
X314198Y191600D01*
X314313Y191630D01*
X314429Y191655D01*
X314545Y191677D01*
X314662Y191694D01*
X314780Y191708D01*
X314897Y191718D01*
X315016Y191724D01*
X315134Y191726D01*
X315252Y191724D01*
X315371Y191718D01*
X315488Y191708D01*
X315606Y191694D01*
X315723Y191677D01*
X315839Y191655D01*
X315955Y191630D01*
X316070Y191600D01*
X316183Y191567D01*
X316296Y191530D01*
X316407Y191489D01*
X316516Y191445D01*
X316625Y191397D01*
X316731Y191345D01*
X316836Y191290D01*
X316939Y191232D01*
X317039Y191170D01*
X317138Y191104D01*
X317234Y191036D01*
X317329Y190964D01*
X317420Y190889D01*
X317509Y190811D01*
X317596Y190730D01*
X317679Y190647D01*
X317760Y190560D01*
X317838Y190471D01*
X317913Y190380D01*
X317985Y190285D01*
X318053Y190189D01*
X318119Y190090D01*
X318181Y189990D01*
X318239Y189887D01*
X318294Y189782D01*
X318346Y189676D01*
X318394Y189567D01*
X318438Y189458D01*
X318479Y189347D01*
X318516Y189234D01*
X318549Y189121D01*
X318579Y189006D01*
X318604Y188890D01*
X318626Y188774D01*
X318643Y188657D01*
X318657Y188539D01*
X318667Y188422D01*
X318673Y188303D01*
X318675Y188185D01*
X318675Y186414D01*
X311592Y186414D01*
X327284Y181102D02*
X327284Y191726D01*
X332596Y191726D01*
X332596Y189955D01*
D12*
X245473Y170822D02*
X245471Y170909D01*
X245465Y170996D01*
X245456Y171082D01*
X245443Y171168D01*
X245426Y171253D01*
X245405Y171338D01*
X245381Y171421D01*
X245353Y171503D01*
X245321Y171584D01*
X245286Y171664D01*
X245248Y171742D01*
X245206Y171818D01*
X245161Y171892D01*
X245113Y171965D01*
X245061Y172035D01*
X245007Y172102D01*
X244950Y172168D01*
X244890Y172231D01*
X244827Y172291D01*
X244761Y172348D01*
X244694Y172402D01*
X244624Y172454D01*
X244551Y172502D01*
X244477Y172547D01*
X244401Y172589D01*
X244323Y172627D01*
X244243Y172662D01*
X244162Y172694D01*
X244080Y172722D01*
X243997Y172746D01*
X243912Y172767D01*
X243827Y172784D01*
X243741Y172797D01*
X243655Y172806D01*
X243568Y172812D01*
X243481Y172814D01*
X243380Y172812D01*
X243280Y172806D01*
X243180Y172796D01*
X243080Y172782D01*
X242981Y172765D01*
X242883Y172743D01*
X242786Y172718D01*
X242690Y172689D01*
X242595Y172656D01*
X242501Y172619D01*
X242409Y172579D01*
X242318Y172535D01*
X242230Y172487D01*
X242143Y172436D01*
X242058Y172382D01*
X241976Y172325D01*
X241896Y172264D01*
X241818Y172200D01*
X241743Y172133D01*
X241670Y172063D01*
X241601Y171991D01*
X241534Y171916D01*
X241470Y171838D01*
X241410Y171758D01*
X241352Y171675D01*
X241298Y171590D01*
X241247Y171504D01*
X241200Y171415D01*
X241156Y171324D01*
X241116Y171232D01*
X241079Y171138D01*
X241046Y171043D01*
X244809Y169272D02*
X244874Y169337D01*
X244935Y169404D01*
X244994Y169473D01*
X245050Y169545D01*
X245103Y169620D01*
X245153Y169696D01*
X245199Y169775D01*
X245242Y169855D01*
X245282Y169937D01*
X245317Y170021D01*
X245350Y170106D01*
X245378Y170193D01*
X245403Y170281D01*
X245425Y170369D01*
X245442Y170459D01*
X245456Y170549D01*
X245465Y170640D01*
X245471Y170731D01*
X245473Y170822D01*
X244809Y169273D02*
X241046Y164846D01*
X245473Y164846D01*
X250046Y168830D02*
X250048Y168987D01*
X250053Y169143D01*
X250063Y169300D01*
X250076Y169456D01*
X250093Y169612D01*
X250113Y169767D01*
X250137Y169922D01*
X250165Y170076D01*
X250197Y170230D01*
X250232Y170383D01*
X250271Y170535D01*
X250314Y170685D01*
X250360Y170835D01*
X250409Y170984D01*
X250463Y171131D01*
X250519Y171278D01*
X250579Y171422D01*
X250643Y171566D01*
X250710Y171707D01*
X250737Y171780D01*
X250767Y171852D01*
X250801Y171923D01*
X250838Y171991D01*
X250879Y172058D01*
X250923Y172123D01*
X250969Y172186D01*
X251019Y172246D01*
X251071Y172304D01*
X251127Y172359D01*
X251184Y172412D01*
X251244Y172462D01*
X251307Y172509D01*
X251372Y172553D01*
X251438Y172594D01*
X251507Y172631D01*
X251577Y172665D01*
X251649Y172696D01*
X251722Y172723D01*
X251796Y172747D01*
X251872Y172768D01*
X251948Y172784D01*
X252025Y172797D01*
X252103Y172807D01*
X252181Y172812D01*
X252259Y172814D01*
X252337Y172812D01*
X252415Y172807D01*
X252493Y172797D01*
X252570Y172784D01*
X252646Y172768D01*
X252722Y172747D01*
X252796Y172723D01*
X252869Y172696D01*
X252941Y172665D01*
X253011Y172631D01*
X253080Y172594D01*
X253146Y172553D01*
X253211Y172509D01*
X253274Y172462D01*
X253334Y172412D01*
X253391Y172359D01*
X253447Y172304D01*
X253499Y172246D01*
X253549Y172186D01*
X253595Y172123D01*
X253639Y172058D01*
X253680Y171991D01*
X253717Y171923D01*
X253751Y171852D01*
X253781Y171780D01*
X253808Y171707D01*
X253809Y171707D02*
X253876Y171566D01*
X253940Y171422D01*
X254000Y171278D01*
X254056Y171131D01*
X254110Y170984D01*
X254159Y170835D01*
X254205Y170685D01*
X254248Y170535D01*
X254287Y170383D01*
X254322Y170230D01*
X254354Y170076D01*
X254382Y169922D01*
X254406Y169767D01*
X254426Y169612D01*
X254443Y169456D01*
X254456Y169300D01*
X254466Y169143D01*
X254471Y168987D01*
X254473Y168830D01*
X250046Y168830D02*
X250048Y168673D01*
X250053Y168517D01*
X250063Y168360D01*
X250076Y168204D01*
X250093Y168048D01*
X250113Y167893D01*
X250137Y167738D01*
X250165Y167584D01*
X250197Y167430D01*
X250232Y167277D01*
X250271Y167125D01*
X250314Y166975D01*
X250360Y166825D01*
X250409Y166676D01*
X250463Y166529D01*
X250519Y166383D01*
X250579Y166238D01*
X250643Y166095D01*
X250710Y165953D01*
X250737Y165879D01*
X250767Y165808D01*
X250801Y165737D01*
X250838Y165669D01*
X250879Y165602D01*
X250923Y165537D01*
X250969Y165474D01*
X251019Y165414D01*
X251071Y165356D01*
X251127Y165301D01*
X251184Y165248D01*
X251244Y165198D01*
X251307Y165151D01*
X251372Y165107D01*
X251438Y165066D01*
X251507Y165029D01*
X251577Y164995D01*
X251649Y164964D01*
X251722Y164937D01*
X251796Y164913D01*
X251872Y164892D01*
X251948Y164876D01*
X252025Y164863D01*
X252103Y164853D01*
X252181Y164848D01*
X252259Y164846D01*
X253808Y165953D02*
X253875Y166095D01*
X253939Y166238D01*
X253999Y166383D01*
X254055Y166529D01*
X254109Y166676D01*
X254158Y166825D01*
X254204Y166975D01*
X254247Y167125D01*
X254286Y167277D01*
X254321Y167430D01*
X254353Y167584D01*
X254381Y167738D01*
X254405Y167893D01*
X254425Y168048D01*
X254442Y168204D01*
X254455Y168360D01*
X254465Y168517D01*
X254470Y168673D01*
X254472Y168830D01*
X253808Y165953D02*
X253781Y165879D01*
X253751Y165808D01*
X253717Y165737D01*
X253680Y165668D01*
X253639Y165602D01*
X253595Y165537D01*
X253549Y165474D01*
X253499Y165414D01*
X253447Y165356D01*
X253391Y165301D01*
X253334Y165248D01*
X253274Y165198D01*
X253211Y165151D01*
X253146Y165107D01*
X253080Y165066D01*
X253011Y165029D01*
X252941Y164995D01*
X252869Y164964D01*
X252796Y164937D01*
X252722Y164913D01*
X252646Y164892D01*
X252570Y164876D01*
X252493Y164863D01*
X252415Y164853D01*
X252337Y164848D01*
X252259Y164846D01*
X250489Y166617D02*
X254030Y171043D01*
X261481Y172814D02*
X261568Y172812D01*
X261655Y172806D01*
X261741Y172797D01*
X261827Y172784D01*
X261912Y172767D01*
X261997Y172746D01*
X262080Y172722D01*
X262162Y172694D01*
X262243Y172662D01*
X262323Y172627D01*
X262401Y172589D01*
X262477Y172547D01*
X262551Y172502D01*
X262624Y172454D01*
X262694Y172402D01*
X262761Y172348D01*
X262827Y172291D01*
X262890Y172231D01*
X262950Y172168D01*
X263007Y172102D01*
X263061Y172035D01*
X263113Y171965D01*
X263161Y171892D01*
X263206Y171818D01*
X263248Y171742D01*
X263286Y171664D01*
X263321Y171584D01*
X263353Y171503D01*
X263381Y171421D01*
X263405Y171338D01*
X263426Y171253D01*
X263443Y171168D01*
X263456Y171082D01*
X263465Y170996D01*
X263471Y170909D01*
X263473Y170822D01*
X261481Y172814D02*
X261380Y172812D01*
X261280Y172806D01*
X261180Y172796D01*
X261080Y172782D01*
X260981Y172765D01*
X260883Y172743D01*
X260786Y172718D01*
X260690Y172689D01*
X260595Y172656D01*
X260501Y172619D01*
X260409Y172579D01*
X260318Y172535D01*
X260230Y172487D01*
X260143Y172436D01*
X260058Y172382D01*
X259976Y172325D01*
X259896Y172264D01*
X259818Y172200D01*
X259743Y172133D01*
X259670Y172063D01*
X259601Y171991D01*
X259534Y171916D01*
X259470Y171838D01*
X259410Y171758D01*
X259352Y171675D01*
X259298Y171590D01*
X259247Y171504D01*
X259200Y171415D01*
X259156Y171324D01*
X259116Y171232D01*
X259079Y171138D01*
X259046Y171043D01*
X262809Y169272D02*
X262874Y169337D01*
X262935Y169404D01*
X262994Y169473D01*
X263050Y169545D01*
X263103Y169620D01*
X263153Y169696D01*
X263199Y169775D01*
X263242Y169855D01*
X263282Y169937D01*
X263317Y170021D01*
X263350Y170106D01*
X263378Y170193D01*
X263403Y170281D01*
X263425Y170369D01*
X263442Y170459D01*
X263456Y170549D01*
X263465Y170640D01*
X263471Y170731D01*
X263473Y170822D01*
X262809Y169273D02*
X259046Y164846D01*
X263473Y164846D01*
X270481Y172814D02*
X270568Y172812D01*
X270655Y172806D01*
X270741Y172797D01*
X270827Y172784D01*
X270912Y172767D01*
X270997Y172746D01*
X271080Y172722D01*
X271162Y172694D01*
X271243Y172662D01*
X271323Y172627D01*
X271401Y172589D01*
X271477Y172547D01*
X271551Y172502D01*
X271624Y172454D01*
X271694Y172402D01*
X271761Y172348D01*
X271827Y172291D01*
X271890Y172231D01*
X271950Y172168D01*
X272007Y172102D01*
X272061Y172035D01*
X272113Y171965D01*
X272161Y171892D01*
X272206Y171818D01*
X272248Y171742D01*
X272286Y171664D01*
X272321Y171584D01*
X272353Y171503D01*
X272381Y171421D01*
X272405Y171338D01*
X272426Y171253D01*
X272443Y171168D01*
X272456Y171082D01*
X272465Y170996D01*
X272471Y170909D01*
X272473Y170822D01*
X270481Y172814D02*
X270380Y172812D01*
X270280Y172806D01*
X270180Y172796D01*
X270080Y172782D01*
X269981Y172765D01*
X269883Y172743D01*
X269786Y172718D01*
X269690Y172689D01*
X269595Y172656D01*
X269501Y172619D01*
X269409Y172579D01*
X269318Y172535D01*
X269230Y172487D01*
X269143Y172436D01*
X269058Y172382D01*
X268976Y172325D01*
X268896Y172264D01*
X268818Y172200D01*
X268743Y172133D01*
X268670Y172063D01*
X268601Y171991D01*
X268534Y171916D01*
X268470Y171838D01*
X268410Y171758D01*
X268352Y171675D01*
X268298Y171590D01*
X268247Y171504D01*
X268200Y171415D01*
X268156Y171324D01*
X268116Y171232D01*
X268079Y171138D01*
X268046Y171043D01*
X271809Y169272D02*
X271874Y169337D01*
X271935Y169404D01*
X271994Y169473D01*
X272050Y169545D01*
X272103Y169620D01*
X272153Y169696D01*
X272199Y169775D01*
X272242Y169855D01*
X272282Y169937D01*
X272317Y170021D01*
X272350Y170106D01*
X272378Y170193D01*
X272403Y170281D01*
X272425Y170369D01*
X272442Y170459D01*
X272456Y170549D01*
X272465Y170640D01*
X272471Y170731D01*
X272473Y170822D01*
X271809Y169273D02*
X268046Y164846D01*
X272473Y164846D01*
X277203Y167945D02*
X282515Y167945D01*
X287246Y168830D02*
X287248Y168987D01*
X287253Y169143D01*
X287263Y169300D01*
X287276Y169456D01*
X287293Y169612D01*
X287313Y169767D01*
X287337Y169922D01*
X287365Y170076D01*
X287397Y170230D01*
X287432Y170383D01*
X287471Y170535D01*
X287514Y170685D01*
X287560Y170835D01*
X287609Y170984D01*
X287663Y171131D01*
X287719Y171278D01*
X287779Y171422D01*
X287843Y171566D01*
X287910Y171707D01*
X287937Y171780D01*
X287967Y171852D01*
X288001Y171923D01*
X288038Y171991D01*
X288079Y172058D01*
X288123Y172123D01*
X288169Y172186D01*
X288219Y172246D01*
X288271Y172304D01*
X288327Y172359D01*
X288384Y172412D01*
X288444Y172462D01*
X288507Y172509D01*
X288572Y172553D01*
X288638Y172594D01*
X288707Y172631D01*
X288777Y172665D01*
X288849Y172696D01*
X288922Y172723D01*
X288996Y172747D01*
X289072Y172768D01*
X289148Y172784D01*
X289225Y172797D01*
X289303Y172807D01*
X289381Y172812D01*
X289459Y172814D01*
X289537Y172812D01*
X289615Y172807D01*
X289693Y172797D01*
X289770Y172784D01*
X289846Y172768D01*
X289922Y172747D01*
X289996Y172723D01*
X290069Y172696D01*
X290141Y172665D01*
X290211Y172631D01*
X290280Y172594D01*
X290346Y172553D01*
X290411Y172509D01*
X290474Y172462D01*
X290534Y172412D01*
X290591Y172359D01*
X290647Y172304D01*
X290699Y172246D01*
X290749Y172186D01*
X290795Y172123D01*
X290839Y172058D01*
X290880Y171991D01*
X290917Y171923D01*
X290951Y171852D01*
X290981Y171780D01*
X291008Y171707D01*
X291075Y171566D01*
X291139Y171422D01*
X291199Y171278D01*
X291255Y171131D01*
X291309Y170984D01*
X291358Y170835D01*
X291404Y170685D01*
X291447Y170535D01*
X291486Y170383D01*
X291521Y170230D01*
X291553Y170076D01*
X291581Y169922D01*
X291605Y169767D01*
X291625Y169612D01*
X291642Y169456D01*
X291655Y169300D01*
X291665Y169143D01*
X291670Y168987D01*
X291672Y168830D01*
X287246Y168830D02*
X287248Y168673D01*
X287253Y168517D01*
X287263Y168360D01*
X287276Y168204D01*
X287293Y168048D01*
X287313Y167893D01*
X287337Y167738D01*
X287365Y167584D01*
X287397Y167430D01*
X287432Y167277D01*
X287471Y167125D01*
X287514Y166975D01*
X287560Y166825D01*
X287609Y166676D01*
X287663Y166529D01*
X287719Y166383D01*
X287779Y166238D01*
X287843Y166095D01*
X287910Y165953D01*
X287937Y165879D01*
X287967Y165808D01*
X288001Y165737D01*
X288038Y165669D01*
X288079Y165602D01*
X288123Y165537D01*
X288169Y165474D01*
X288219Y165414D01*
X288271Y165356D01*
X288327Y165301D01*
X288384Y165248D01*
X288444Y165198D01*
X288507Y165151D01*
X288572Y165107D01*
X288638Y165066D01*
X288707Y165029D01*
X288777Y164995D01*
X288849Y164964D01*
X288922Y164937D01*
X288996Y164913D01*
X289072Y164892D01*
X289148Y164876D01*
X289225Y164863D01*
X289303Y164853D01*
X289381Y164848D01*
X289459Y164846D01*
X291008Y165953D02*
X291075Y166095D01*
X291139Y166238D01*
X291199Y166383D01*
X291255Y166529D01*
X291309Y166676D01*
X291358Y166825D01*
X291404Y166975D01*
X291447Y167125D01*
X291486Y167277D01*
X291521Y167430D01*
X291553Y167584D01*
X291581Y167738D01*
X291605Y167893D01*
X291625Y168048D01*
X291642Y168204D01*
X291655Y168360D01*
X291665Y168517D01*
X291670Y168673D01*
X291672Y168830D01*
X291008Y165953D02*
X290981Y165879D01*
X290951Y165808D01*
X290917Y165737D01*
X290880Y165668D01*
X290839Y165602D01*
X290795Y165537D01*
X290749Y165474D01*
X290699Y165414D01*
X290647Y165356D01*
X290591Y165301D01*
X290534Y165248D01*
X290474Y165198D01*
X290411Y165151D01*
X290346Y165107D01*
X290280Y165066D01*
X290211Y165029D01*
X290141Y164995D01*
X290069Y164964D01*
X289996Y164937D01*
X289922Y164913D01*
X289846Y164892D01*
X289770Y164876D01*
X289693Y164863D01*
X289615Y164853D01*
X289537Y164848D01*
X289459Y164846D01*
X287689Y166617D02*
X291230Y171043D01*
X296246Y171043D02*
X298459Y172814D01*
X298459Y164846D01*
X296246Y164846D02*
X300673Y164846D01*
X309589Y170158D02*
X311359Y164846D01*
X313130Y170158D01*
X317246Y168830D02*
X317248Y168987D01*
X317253Y169143D01*
X317263Y169300D01*
X317276Y169456D01*
X317293Y169612D01*
X317313Y169767D01*
X317337Y169922D01*
X317365Y170076D01*
X317397Y170230D01*
X317432Y170383D01*
X317471Y170535D01*
X317514Y170685D01*
X317560Y170835D01*
X317609Y170984D01*
X317663Y171131D01*
X317719Y171278D01*
X317779Y171422D01*
X317843Y171566D01*
X317910Y171707D01*
X317937Y171780D01*
X317967Y171852D01*
X318001Y171923D01*
X318038Y171991D01*
X318079Y172058D01*
X318123Y172123D01*
X318169Y172186D01*
X318219Y172246D01*
X318271Y172304D01*
X318327Y172359D01*
X318384Y172412D01*
X318444Y172462D01*
X318507Y172509D01*
X318572Y172553D01*
X318638Y172594D01*
X318707Y172631D01*
X318777Y172665D01*
X318849Y172696D01*
X318922Y172723D01*
X318996Y172747D01*
X319072Y172768D01*
X319148Y172784D01*
X319225Y172797D01*
X319303Y172807D01*
X319381Y172812D01*
X319459Y172814D01*
X319537Y172812D01*
X319615Y172807D01*
X319693Y172797D01*
X319770Y172784D01*
X319846Y172768D01*
X319922Y172747D01*
X319996Y172723D01*
X320069Y172696D01*
X320141Y172665D01*
X320211Y172631D01*
X320280Y172594D01*
X320346Y172553D01*
X320411Y172509D01*
X320474Y172462D01*
X320534Y172412D01*
X320591Y172359D01*
X320647Y172304D01*
X320699Y172246D01*
X320749Y172186D01*
X320795Y172123D01*
X320839Y172058D01*
X320880Y171991D01*
X320917Y171923D01*
X320951Y171852D01*
X320981Y171780D01*
X321008Y171707D01*
X321075Y171566D01*
X321139Y171422D01*
X321199Y171278D01*
X321255Y171131D01*
X321309Y170984D01*
X321358Y170835D01*
X321404Y170685D01*
X321447Y170535D01*
X321486Y170383D01*
X321521Y170230D01*
X321553Y170076D01*
X321581Y169922D01*
X321605Y169767D01*
X321625Y169612D01*
X321642Y169456D01*
X321655Y169300D01*
X321665Y169143D01*
X321670Y168987D01*
X321672Y168830D01*
X317246Y168830D02*
X317248Y168673D01*
X317253Y168517D01*
X317263Y168360D01*
X317276Y168204D01*
X317293Y168048D01*
X317313Y167893D01*
X317337Y167738D01*
X317365Y167584D01*
X317397Y167430D01*
X317432Y167277D01*
X317471Y167125D01*
X317514Y166975D01*
X317560Y166825D01*
X317609Y166676D01*
X317663Y166529D01*
X317719Y166383D01*
X317779Y166238D01*
X317843Y166095D01*
X317910Y165953D01*
X317937Y165879D01*
X317967Y165808D01*
X318001Y165737D01*
X318038Y165669D01*
X318079Y165602D01*
X318123Y165537D01*
X318169Y165474D01*
X318219Y165414D01*
X318271Y165356D01*
X318327Y165301D01*
X318384Y165248D01*
X318444Y165198D01*
X318507Y165151D01*
X318572Y165107D01*
X318638Y165066D01*
X318707Y165029D01*
X318777Y164995D01*
X318849Y164964D01*
X318922Y164937D01*
X318996Y164913D01*
X319072Y164892D01*
X319148Y164876D01*
X319225Y164863D01*
X319303Y164853D01*
X319381Y164848D01*
X319459Y164846D01*
X321008Y165953D02*
X321075Y166095D01*
X321139Y166238D01*
X321199Y166383D01*
X321255Y166529D01*
X321309Y166676D01*
X321358Y166825D01*
X321404Y166975D01*
X321447Y167125D01*
X321486Y167277D01*
X321521Y167430D01*
X321553Y167584D01*
X321581Y167738D01*
X321605Y167893D01*
X321625Y168048D01*
X321642Y168204D01*
X321655Y168360D01*
X321665Y168517D01*
X321670Y168673D01*
X321672Y168830D01*
X321008Y165953D02*
X320981Y165879D01*
X320951Y165808D01*
X320917Y165737D01*
X320880Y165668D01*
X320839Y165602D01*
X320795Y165537D01*
X320749Y165474D01*
X320699Y165414D01*
X320647Y165356D01*
X320591Y165301D01*
X320534Y165248D01*
X320474Y165198D01*
X320411Y165151D01*
X320346Y165107D01*
X320280Y165066D01*
X320211Y165029D01*
X320141Y164995D01*
X320069Y164964D01*
X319996Y164937D01*
X319922Y164913D01*
X319846Y164892D01*
X319770Y164876D01*
X319693Y164863D01*
X319615Y164853D01*
X319537Y164848D01*
X319459Y164846D01*
X317688Y166617D02*
X321230Y171043D01*
X325538Y165289D02*
X325538Y164846D01*
X325538Y165289D02*
X325980Y165289D01*
X325980Y164846D01*
X325538Y164846D01*
X329846Y171043D02*
X332059Y172814D01*
X332059Y164846D01*
X329846Y164846D02*
X334272Y164846D01*
X305547Y154918D02*
X302006Y154918D01*
X305547Y154918D02*
X302006Y149606D01*
X305547Y149606D01*
X308620Y154918D02*
X311276Y154918D01*
X309505Y157574D02*
X309505Y150934D01*
X309507Y150862D01*
X309513Y150790D01*
X309522Y150719D01*
X309536Y150649D01*
X309553Y150579D01*
X309575Y150510D01*
X309599Y150442D01*
X309628Y150376D01*
X309660Y150312D01*
X309695Y150249D01*
X309734Y150189D01*
X309776Y150130D01*
X309821Y150074D01*
X309869Y150021D01*
X309920Y149970D01*
X309973Y149922D01*
X310029Y149877D01*
X310088Y149835D01*
X310148Y149796D01*
X310211Y149761D01*
X310275Y149729D01*
X310341Y149700D01*
X310409Y149676D01*
X310478Y149654D01*
X310548Y149637D01*
X310618Y149623D01*
X310689Y149614D01*
X310761Y149608D01*
X310833Y149606D01*
X311276Y149606D01*
X315506Y149606D02*
X315506Y154918D01*
X317719Y154918D01*
X317791Y154916D01*
X317863Y154910D01*
X317934Y154901D01*
X318004Y154887D01*
X318074Y154870D01*
X318143Y154848D01*
X318211Y154824D01*
X318277Y154795D01*
X318341Y154763D01*
X318404Y154728D01*
X318464Y154689D01*
X318523Y154647D01*
X318579Y154602D01*
X318632Y154554D01*
X318683Y154503D01*
X318731Y154450D01*
X318776Y154394D01*
X318818Y154335D01*
X318857Y154275D01*
X318892Y154212D01*
X318924Y154148D01*
X318953Y154082D01*
X318977Y154014D01*
X318999Y153945D01*
X319016Y153875D01*
X319030Y153805D01*
X319039Y153734D01*
X319045Y153662D01*
X319047Y153590D01*
X319047Y149606D01*
X324934Y149606D02*
X327147Y149606D01*
X324934Y149606D02*
X324862Y149608D01*
X324790Y149614D01*
X324719Y149623D01*
X324649Y149637D01*
X324579Y149654D01*
X324510Y149676D01*
X324442Y149700D01*
X324376Y149729D01*
X324312Y149761D01*
X324249Y149796D01*
X324189Y149835D01*
X324130Y149877D01*
X324074Y149922D01*
X324021Y149970D01*
X323970Y150021D01*
X323922Y150074D01*
X323877Y150130D01*
X323835Y150189D01*
X323796Y150249D01*
X323761Y150312D01*
X323729Y150376D01*
X323700Y150442D01*
X323676Y150510D01*
X323654Y150579D01*
X323637Y150649D01*
X323623Y150719D01*
X323614Y150790D01*
X323608Y150862D01*
X323606Y150934D01*
X323606Y153147D01*
X323608Y153230D01*
X323614Y153313D01*
X323623Y153395D01*
X323637Y153477D01*
X323654Y153558D01*
X323676Y153639D01*
X323701Y153718D01*
X323729Y153796D01*
X323761Y153872D01*
X323797Y153947D01*
X323836Y154020D01*
X323879Y154092D01*
X323925Y154161D01*
X323974Y154228D01*
X324026Y154292D01*
X324081Y154354D01*
X324139Y154414D01*
X324200Y154470D01*
X324264Y154524D01*
X324329Y154575D01*
X324397Y154622D01*
X324468Y154667D01*
X324540Y154708D01*
X324614Y154745D01*
X324690Y154779D01*
X324767Y154810D01*
X324846Y154836D01*
X324925Y154859D01*
X325006Y154879D01*
X325088Y154894D01*
X325170Y154906D01*
X325253Y154914D01*
X325335Y154918D01*
X325419Y154918D01*
X325501Y154914D01*
X325584Y154906D01*
X325666Y154894D01*
X325748Y154879D01*
X325829Y154859D01*
X325908Y154836D01*
X325987Y154810D01*
X326064Y154779D01*
X326140Y154745D01*
X326214Y154708D01*
X326286Y154667D01*
X326357Y154622D01*
X326425Y154575D01*
X326490Y154524D01*
X326554Y154470D01*
X326615Y154414D01*
X326673Y154354D01*
X326728Y154292D01*
X326780Y154228D01*
X326829Y154161D01*
X326875Y154092D01*
X326918Y154020D01*
X326957Y153947D01*
X326993Y153872D01*
X327025Y153796D01*
X327053Y153718D01*
X327078Y153639D01*
X327100Y153558D01*
X327117Y153477D01*
X327131Y153395D01*
X327140Y153313D01*
X327146Y153230D01*
X327148Y153147D01*
X327147Y153147D02*
X327147Y152262D01*
X323606Y152262D01*
X331383Y150934D02*
X331383Y157574D01*
X331383Y150934D02*
X331385Y150862D01*
X331391Y150790D01*
X331400Y150719D01*
X331414Y150649D01*
X331431Y150579D01*
X331453Y150510D01*
X331477Y150442D01*
X331506Y150376D01*
X331538Y150312D01*
X331573Y150249D01*
X331612Y150189D01*
X331654Y150130D01*
X331699Y150074D01*
X331747Y150021D01*
X331798Y149970D01*
X331851Y149922D01*
X331907Y149877D01*
X331966Y149835D01*
X332026Y149796D01*
X332089Y149761D01*
X332153Y149729D01*
X332219Y149700D01*
X332287Y149676D01*
X332356Y149654D01*
X332426Y149637D01*
X332496Y149623D01*
X332567Y149614D01*
X332639Y149608D01*
X332711Y149606D01*
X227330Y321310D02*
X227330Y334010D01*
X151930Y302260D02*
X151945Y303487D01*
X151990Y304713D01*
X152065Y305938D01*
X152171Y307161D01*
X152306Y308381D01*
X152471Y309597D01*
X152666Y310808D01*
X152891Y312015D01*
X153145Y313215D01*
X153428Y314409D01*
X153741Y315596D01*
X154083Y316774D01*
X154454Y317944D01*
X154853Y319104D01*
X155280Y320255D01*
X155736Y321394D01*
X156220Y322522D01*
X156731Y323638D01*
X157269Y324741D01*
X157834Y325830D01*
X158426Y326905D01*
X159044Y327965D01*
X159687Y329010D01*
X160357Y330039D01*
X161051Y331050D01*
X161770Y332045D01*
X162513Y333022D01*
X163279Y333980D01*
X164070Y334919D01*
X164882Y335838D01*
X165718Y336737D01*
X166575Y337615D01*
X167453Y338472D01*
X168352Y339308D01*
X169271Y340120D01*
X170210Y340911D01*
X171168Y341677D01*
X172145Y342420D01*
X173140Y343139D01*
X174151Y343833D01*
X175180Y344503D01*
X176225Y345146D01*
X177285Y345764D01*
X178360Y346356D01*
X179449Y346921D01*
X180552Y347459D01*
X181668Y347970D01*
X182796Y348454D01*
X183935Y348910D01*
X185086Y349337D01*
X186246Y349736D01*
X187416Y350107D01*
X188594Y350449D01*
X189781Y350762D01*
X190975Y351045D01*
X192175Y351299D01*
X193382Y351524D01*
X194593Y351719D01*
X195809Y351884D01*
X197029Y352019D01*
X198252Y352125D01*
X199477Y352200D01*
X200703Y352245D01*
X201930Y352260D01*
X203157Y352245D01*
X204383Y352200D01*
X205608Y352125D01*
X206831Y352019D01*
X208051Y351884D01*
X209267Y351719D01*
X210478Y351524D01*
X211685Y351299D01*
X212885Y351045D01*
X214079Y350762D01*
X215266Y350449D01*
X216444Y350107D01*
X217614Y349736D01*
X218774Y349337D01*
X219925Y348910D01*
X221064Y348454D01*
X222192Y347970D01*
X223308Y347459D01*
X224411Y346921D01*
X225500Y346356D01*
X226575Y345764D01*
X227635Y345146D01*
X228680Y344503D01*
X229709Y343833D01*
X230720Y343139D01*
X231715Y342420D01*
X232692Y341677D01*
X233650Y340911D01*
X234589Y340120D01*
X235508Y339308D01*
X236407Y338472D01*
X237285Y337615D01*
X238142Y336737D01*
X238978Y335838D01*
X239790Y334919D01*
X240581Y333980D01*
X241347Y333022D01*
X242090Y332045D01*
X242809Y331050D01*
X243503Y330039D01*
X244173Y329010D01*
X244816Y327965D01*
X245434Y326905D01*
X246026Y325830D01*
X246591Y324741D01*
X247129Y323638D01*
X247640Y322522D01*
X248124Y321394D01*
X248580Y320255D01*
X249007Y319104D01*
X249406Y317944D01*
X249777Y316774D01*
X250119Y315596D01*
X250432Y314409D01*
X250715Y313215D01*
X250969Y312015D01*
X251194Y310808D01*
X251389Y309597D01*
X251554Y308381D01*
X251689Y307161D01*
X251795Y305938D01*
X251870Y304713D01*
X251915Y303487D01*
X251930Y302260D01*
X251915Y301033D01*
X251870Y299807D01*
X251795Y298582D01*
X251689Y297359D01*
X251554Y296139D01*
X251389Y294923D01*
X251194Y293712D01*
X250969Y292505D01*
X250715Y291305D01*
X250432Y290111D01*
X250119Y288924D01*
X249777Y287746D01*
X249406Y286576D01*
X249007Y285416D01*
X248580Y284265D01*
X248124Y283126D01*
X247640Y281998D01*
X247129Y280882D01*
X246591Y279779D01*
X246026Y278690D01*
X245434Y277615D01*
X244816Y276555D01*
X244173Y275510D01*
X243503Y274481D01*
X242809Y273470D01*
X242090Y272475D01*
X241347Y271498D01*
X240581Y270540D01*
X239790Y269601D01*
X238978Y268682D01*
X238142Y267783D01*
X237285Y266905D01*
X236407Y266048D01*
X235508Y265212D01*
X234589Y264400D01*
X233650Y263609D01*
X232692Y262843D01*
X231715Y262100D01*
X230720Y261381D01*
X229709Y260687D01*
X228680Y260017D01*
X227635Y259374D01*
X226575Y258756D01*
X225500Y258164D01*
X224411Y257599D01*
X223308Y257061D01*
X222192Y256550D01*
X221064Y256066D01*
X219925Y255610D01*
X218774Y255183D01*
X217614Y254784D01*
X216444Y254413D01*
X215266Y254071D01*
X214079Y253758D01*
X212885Y253475D01*
X211685Y253221D01*
X210478Y252996D01*
X209267Y252801D01*
X208051Y252636D01*
X206831Y252501D01*
X205608Y252395D01*
X204383Y252320D01*
X203157Y252275D01*
X201930Y252260D01*
X200703Y252275D01*
X199477Y252320D01*
X198252Y252395D01*
X197029Y252501D01*
X195809Y252636D01*
X194593Y252801D01*
X193382Y252996D01*
X192175Y253221D01*
X190975Y253475D01*
X189781Y253758D01*
X188594Y254071D01*
X187416Y254413D01*
X186246Y254784D01*
X185086Y255183D01*
X183935Y255610D01*
X182796Y256066D01*
X181668Y256550D01*
X180552Y257061D01*
X179449Y257599D01*
X178360Y258164D01*
X177285Y258756D01*
X176225Y259374D01*
X175180Y260017D01*
X174151Y260687D01*
X173140Y261381D01*
X172145Y262100D01*
X171168Y262843D01*
X170210Y263609D01*
X169271Y264400D01*
X168352Y265212D01*
X167453Y266048D01*
X166575Y266905D01*
X165718Y267783D01*
X164882Y268682D01*
X164070Y269601D01*
X163279Y270540D01*
X162513Y271498D01*
X161770Y272475D01*
X161051Y273470D01*
X160357Y274481D01*
X159687Y275510D01*
X159044Y276555D01*
X158426Y277615D01*
X157834Y278690D01*
X157269Y279779D01*
X156731Y280882D01*
X156220Y281998D01*
X155736Y283126D01*
X155280Y284265D01*
X154853Y285416D01*
X154454Y286576D01*
X154083Y287746D01*
X153741Y288924D01*
X153428Y290111D01*
X153145Y291305D01*
X152891Y292505D01*
X152666Y293712D01*
X152471Y294923D01*
X152306Y296139D01*
X152171Y297359D01*
X152065Y298582D01*
X151990Y299807D01*
X151945Y301033D01*
X151930Y302260D01*
X227330Y283210D02*
X227330Y270510D01*
X233680Y276860D02*
X220980Y276860D01*
D10*
X213134Y240665D02*
X212062Y240665D01*
X211997Y240667D01*
X211933Y240673D01*
X211869Y240683D01*
X211805Y240696D01*
X211743Y240714D01*
X211682Y240735D01*
X211622Y240759D01*
X211564Y240788D01*
X211507Y240820D01*
X211453Y240855D01*
X211401Y240893D01*
X211351Y240935D01*
X211304Y240979D01*
X211260Y241026D01*
X211218Y241076D01*
X211180Y241128D01*
X211145Y241182D01*
X211113Y241239D01*
X211084Y241297D01*
X211060Y241357D01*
X211039Y241418D01*
X211021Y241480D01*
X211008Y241544D01*
X210998Y241608D01*
X210992Y241672D01*
X210990Y241737D01*
X210989Y241737D02*
X210989Y244419D01*
X210990Y244419D02*
X210992Y244484D01*
X210998Y244548D01*
X211008Y244612D01*
X211021Y244676D01*
X211039Y244738D01*
X211060Y244799D01*
X211084Y244859D01*
X211113Y244917D01*
X211145Y244974D01*
X211180Y245028D01*
X211218Y245080D01*
X211260Y245130D01*
X211304Y245177D01*
X211351Y245221D01*
X211401Y245263D01*
X211453Y245301D01*
X211507Y245336D01*
X211564Y245368D01*
X211622Y245397D01*
X211682Y245421D01*
X211743Y245442D01*
X211805Y245460D01*
X211869Y245473D01*
X211933Y245483D01*
X211997Y245489D01*
X212062Y245491D01*
X213134Y245491D01*
X215590Y244419D02*
X216930Y245491D01*
X216930Y240665D01*
X215590Y240665D02*
X218271Y240665D01*
X107315Y238443D02*
X107315Y228918D01*
X119015Y240919D02*
X119015Y245745D01*
X120355Y245745D01*
X120425Y245743D01*
X120495Y245738D01*
X120565Y245728D01*
X120634Y245716D01*
X120702Y245699D01*
X120769Y245679D01*
X120836Y245656D01*
X120900Y245629D01*
X120964Y245599D01*
X121026Y245565D01*
X121085Y245529D01*
X121143Y245489D01*
X121199Y245446D01*
X121252Y245401D01*
X121303Y245352D01*
X121352Y245301D01*
X121397Y245248D01*
X121440Y245192D01*
X121480Y245134D01*
X121516Y245075D01*
X121550Y245013D01*
X121580Y244949D01*
X121607Y244885D01*
X121630Y244818D01*
X121650Y244751D01*
X121667Y244683D01*
X121679Y244614D01*
X121689Y244544D01*
X121694Y244474D01*
X121696Y244404D01*
X121696Y242260D01*
X121694Y242190D01*
X121689Y242120D01*
X121679Y242050D01*
X121667Y241981D01*
X121650Y241913D01*
X121630Y241846D01*
X121607Y241779D01*
X121580Y241715D01*
X121550Y241651D01*
X121516Y241589D01*
X121480Y241530D01*
X121440Y241472D01*
X121397Y241416D01*
X121352Y241363D01*
X121303Y241312D01*
X121252Y241263D01*
X121199Y241218D01*
X121143Y241175D01*
X121085Y241135D01*
X121025Y241099D01*
X120964Y241065D01*
X120900Y241035D01*
X120836Y241008D01*
X120769Y240985D01*
X120702Y240965D01*
X120634Y240948D01*
X120565Y240936D01*
X120495Y240926D01*
X120425Y240921D01*
X120355Y240919D01*
X119015Y240919D01*
X124684Y244673D02*
X126025Y245745D01*
X126025Y240919D01*
X127365Y240919D02*
X124684Y240919D01*
D12*
X170830Y125760D02*
X170830Y119760D01*
X170830Y125760D02*
X162830Y125760D01*
X170830Y103760D02*
X170830Y97760D01*
X162830Y97760D01*
D10*
X159943Y135326D02*
X159943Y137470D01*
X159945Y137541D01*
X159951Y137613D01*
X159960Y137683D01*
X159973Y137753D01*
X159990Y137823D01*
X160011Y137891D01*
X160035Y137958D01*
X160063Y138024D01*
X160094Y138088D01*
X160129Y138151D01*
X160167Y138211D01*
X160208Y138270D01*
X160252Y138326D01*
X160299Y138380D01*
X160348Y138431D01*
X160401Y138479D01*
X160456Y138525D01*
X160513Y138567D01*
X160573Y138607D01*
X160634Y138643D01*
X160698Y138676D01*
X160763Y138705D01*
X160829Y138731D01*
X160897Y138754D01*
X160966Y138773D01*
X161036Y138788D01*
X161106Y138799D01*
X161177Y138807D01*
X161248Y138811D01*
X161320Y138811D01*
X161391Y138807D01*
X161462Y138799D01*
X161532Y138788D01*
X161602Y138773D01*
X161671Y138754D01*
X161739Y138731D01*
X161805Y138705D01*
X161870Y138676D01*
X161934Y138643D01*
X161995Y138607D01*
X162055Y138567D01*
X162112Y138525D01*
X162167Y138479D01*
X162220Y138431D01*
X162269Y138380D01*
X162316Y138326D01*
X162360Y138270D01*
X162401Y138211D01*
X162439Y138151D01*
X162474Y138088D01*
X162505Y138024D01*
X162533Y137958D01*
X162557Y137891D01*
X162578Y137823D01*
X162595Y137753D01*
X162608Y137683D01*
X162617Y137613D01*
X162623Y137541D01*
X162625Y137470D01*
X162624Y137470D02*
X162624Y135326D01*
X162625Y135326D02*
X162623Y135255D01*
X162617Y135183D01*
X162608Y135113D01*
X162595Y135043D01*
X162578Y134973D01*
X162557Y134905D01*
X162533Y134838D01*
X162505Y134772D01*
X162474Y134708D01*
X162439Y134645D01*
X162401Y134585D01*
X162360Y134526D01*
X162316Y134470D01*
X162269Y134416D01*
X162220Y134365D01*
X162167Y134317D01*
X162112Y134271D01*
X162055Y134229D01*
X161995Y134189D01*
X161934Y134153D01*
X161870Y134120D01*
X161805Y134091D01*
X161739Y134065D01*
X161671Y134042D01*
X161602Y134023D01*
X161532Y134008D01*
X161462Y133997D01*
X161391Y133989D01*
X161320Y133985D01*
X161248Y133985D01*
X161177Y133989D01*
X161106Y133997D01*
X161036Y134008D01*
X160966Y134023D01*
X160897Y134042D01*
X160829Y134065D01*
X160763Y134091D01*
X160698Y134120D01*
X160634Y134153D01*
X160573Y134189D01*
X160513Y134229D01*
X160456Y134271D01*
X160401Y134317D01*
X160348Y134365D01*
X160299Y134416D01*
X160252Y134470D01*
X160208Y134526D01*
X160167Y134585D01*
X160129Y134645D01*
X160094Y134708D01*
X160063Y134772D01*
X160035Y134838D01*
X160011Y134905D01*
X159990Y134973D01*
X159973Y135043D01*
X159960Y135113D01*
X159951Y135183D01*
X159945Y135255D01*
X159943Y135326D01*
X162088Y135057D02*
X163161Y133985D01*
X165036Y137739D02*
X166376Y138811D01*
X166376Y133985D01*
X165036Y133985D02*
X167717Y133985D01*
X121678Y118491D02*
X121678Y113665D01*
X121678Y118491D02*
X123019Y118491D01*
X123090Y118489D01*
X123162Y118483D01*
X123232Y118474D01*
X123302Y118461D01*
X123372Y118444D01*
X123440Y118423D01*
X123507Y118399D01*
X123573Y118371D01*
X123637Y118340D01*
X123700Y118305D01*
X123760Y118267D01*
X123819Y118226D01*
X123875Y118182D01*
X123929Y118135D01*
X123980Y118086D01*
X124028Y118033D01*
X124074Y117978D01*
X124116Y117921D01*
X124156Y117861D01*
X124192Y117800D01*
X124225Y117736D01*
X124254Y117671D01*
X124280Y117605D01*
X124303Y117537D01*
X124322Y117468D01*
X124337Y117398D01*
X124348Y117328D01*
X124356Y117257D01*
X124360Y117186D01*
X124360Y117114D01*
X124356Y117043D01*
X124348Y116972D01*
X124337Y116902D01*
X124322Y116832D01*
X124303Y116763D01*
X124280Y116695D01*
X124254Y116629D01*
X124225Y116564D01*
X124192Y116500D01*
X124156Y116439D01*
X124116Y116379D01*
X124074Y116322D01*
X124028Y116267D01*
X123980Y116214D01*
X123929Y116165D01*
X123875Y116118D01*
X123819Y116074D01*
X123760Y116033D01*
X123700Y115995D01*
X123637Y115960D01*
X123573Y115929D01*
X123507Y115901D01*
X123440Y115877D01*
X123372Y115856D01*
X123302Y115839D01*
X123232Y115826D01*
X123162Y115817D01*
X123090Y115811D01*
X123019Y115809D01*
X123019Y115810D02*
X121678Y115810D01*
X123287Y115810D02*
X124359Y113665D01*
X127101Y117419D02*
X128441Y118491D01*
X128441Y113665D01*
X127101Y113665D02*
X129782Y113665D01*
X197878Y113665D02*
X197878Y118491D01*
X199219Y118491D01*
X199290Y118489D01*
X199362Y118483D01*
X199432Y118474D01*
X199502Y118461D01*
X199572Y118444D01*
X199640Y118423D01*
X199707Y118399D01*
X199773Y118371D01*
X199837Y118340D01*
X199900Y118305D01*
X199960Y118267D01*
X200019Y118226D01*
X200075Y118182D01*
X200129Y118135D01*
X200180Y118086D01*
X200228Y118033D01*
X200274Y117978D01*
X200316Y117921D01*
X200356Y117861D01*
X200392Y117800D01*
X200425Y117736D01*
X200454Y117671D01*
X200480Y117605D01*
X200503Y117537D01*
X200522Y117468D01*
X200537Y117398D01*
X200548Y117328D01*
X200556Y117257D01*
X200560Y117186D01*
X200560Y117114D01*
X200556Y117043D01*
X200548Y116972D01*
X200537Y116902D01*
X200522Y116832D01*
X200503Y116763D01*
X200480Y116695D01*
X200454Y116629D01*
X200425Y116564D01*
X200392Y116500D01*
X200356Y116439D01*
X200316Y116379D01*
X200274Y116322D01*
X200228Y116267D01*
X200180Y116214D01*
X200129Y116165D01*
X200075Y116118D01*
X200019Y116074D01*
X199960Y116033D01*
X199900Y115995D01*
X199837Y115960D01*
X199773Y115929D01*
X199707Y115901D01*
X199640Y115877D01*
X199572Y115856D01*
X199502Y115839D01*
X199432Y115826D01*
X199362Y115817D01*
X199290Y115811D01*
X199219Y115809D01*
X199219Y115810D02*
X197878Y115810D01*
X199487Y115810D02*
X200559Y113665D01*
X204775Y118491D02*
X204843Y118489D01*
X204910Y118483D01*
X204977Y118474D01*
X205044Y118461D01*
X205109Y118444D01*
X205174Y118423D01*
X205237Y118399D01*
X205299Y118371D01*
X205359Y118340D01*
X205417Y118306D01*
X205473Y118268D01*
X205528Y118228D01*
X205579Y118184D01*
X205628Y118137D01*
X205675Y118088D01*
X205719Y118037D01*
X205759Y117982D01*
X205797Y117926D01*
X205831Y117868D01*
X205862Y117808D01*
X205890Y117746D01*
X205914Y117683D01*
X205935Y117618D01*
X205952Y117553D01*
X205965Y117486D01*
X205974Y117419D01*
X205980Y117352D01*
X205982Y117284D01*
X204775Y118491D02*
X204697Y118489D01*
X204619Y118483D01*
X204542Y118473D01*
X204465Y118460D01*
X204389Y118442D01*
X204314Y118421D01*
X204240Y118396D01*
X204168Y118367D01*
X204097Y118335D01*
X204028Y118299D01*
X203960Y118260D01*
X203895Y118217D01*
X203832Y118171D01*
X203771Y118122D01*
X203713Y118070D01*
X203658Y118015D01*
X203605Y117958D01*
X203556Y117898D01*
X203509Y117835D01*
X203466Y117771D01*
X203426Y117704D01*
X203389Y117635D01*
X203356Y117564D01*
X203326Y117492D01*
X203300Y117419D01*
X205580Y116346D02*
X205629Y116395D01*
X205676Y116447D01*
X205719Y116502D01*
X205760Y116559D01*
X205798Y116618D01*
X205832Y116679D01*
X205863Y116742D01*
X205891Y116806D01*
X205915Y116872D01*
X205935Y116938D01*
X205952Y117006D01*
X205965Y117075D01*
X205974Y117144D01*
X205980Y117214D01*
X205982Y117284D01*
X205580Y116346D02*
X203301Y113665D01*
X205982Y113665D01*
X117868Y202819D02*
X117868Y207645D01*
X119209Y207645D01*
X119280Y207643D01*
X119352Y207637D01*
X119422Y207628D01*
X119492Y207615D01*
X119562Y207598D01*
X119630Y207577D01*
X119697Y207553D01*
X119763Y207525D01*
X119827Y207494D01*
X119890Y207459D01*
X119950Y207421D01*
X120009Y207380D01*
X120065Y207336D01*
X120119Y207289D01*
X120170Y207240D01*
X120218Y207187D01*
X120264Y207132D01*
X120306Y207075D01*
X120346Y207015D01*
X120382Y206954D01*
X120415Y206890D01*
X120444Y206825D01*
X120470Y206759D01*
X120493Y206691D01*
X120512Y206622D01*
X120527Y206552D01*
X120538Y206482D01*
X120546Y206411D01*
X120550Y206340D01*
X120550Y206268D01*
X120546Y206197D01*
X120538Y206126D01*
X120527Y206056D01*
X120512Y205986D01*
X120493Y205917D01*
X120470Y205849D01*
X120444Y205783D01*
X120415Y205718D01*
X120382Y205654D01*
X120346Y205593D01*
X120306Y205533D01*
X120264Y205476D01*
X120218Y205421D01*
X120170Y205368D01*
X120119Y205319D01*
X120065Y205272D01*
X120009Y205228D01*
X119950Y205187D01*
X119890Y205149D01*
X119827Y205114D01*
X119763Y205083D01*
X119697Y205055D01*
X119630Y205031D01*
X119562Y205010D01*
X119492Y204993D01*
X119422Y204980D01*
X119352Y204971D01*
X119280Y204965D01*
X119209Y204963D01*
X119209Y204964D02*
X117868Y204964D01*
X119477Y204964D02*
X120549Y202819D01*
X123291Y202819D02*
X124631Y202819D01*
X124702Y202821D01*
X124774Y202827D01*
X124844Y202836D01*
X124914Y202849D01*
X124984Y202866D01*
X125052Y202887D01*
X125119Y202911D01*
X125185Y202939D01*
X125249Y202970D01*
X125312Y203005D01*
X125372Y203043D01*
X125431Y203084D01*
X125487Y203128D01*
X125541Y203175D01*
X125592Y203224D01*
X125640Y203277D01*
X125686Y203332D01*
X125728Y203389D01*
X125768Y203449D01*
X125804Y203510D01*
X125837Y203574D01*
X125866Y203639D01*
X125892Y203705D01*
X125915Y203773D01*
X125934Y203842D01*
X125949Y203912D01*
X125960Y203982D01*
X125968Y204053D01*
X125972Y204124D01*
X125972Y204196D01*
X125968Y204267D01*
X125960Y204338D01*
X125949Y204408D01*
X125934Y204478D01*
X125915Y204547D01*
X125892Y204615D01*
X125866Y204681D01*
X125837Y204746D01*
X125804Y204810D01*
X125768Y204871D01*
X125728Y204931D01*
X125686Y204988D01*
X125640Y205043D01*
X125592Y205096D01*
X125541Y205145D01*
X125487Y205192D01*
X125431Y205236D01*
X125372Y205277D01*
X125312Y205315D01*
X125249Y205350D01*
X125185Y205381D01*
X125119Y205409D01*
X125052Y205433D01*
X124984Y205454D01*
X124914Y205471D01*
X124844Y205484D01*
X124774Y205493D01*
X124702Y205499D01*
X124631Y205501D01*
X124899Y207645D02*
X123291Y207645D01*
X124899Y207645D02*
X124964Y207643D01*
X125028Y207637D01*
X125092Y207627D01*
X125156Y207614D01*
X125218Y207596D01*
X125279Y207575D01*
X125339Y207551D01*
X125397Y207522D01*
X125454Y207490D01*
X125508Y207455D01*
X125560Y207417D01*
X125610Y207375D01*
X125657Y207331D01*
X125701Y207284D01*
X125743Y207234D01*
X125781Y207182D01*
X125816Y207128D01*
X125848Y207071D01*
X125877Y207013D01*
X125901Y206953D01*
X125922Y206892D01*
X125940Y206830D01*
X125953Y206766D01*
X125963Y206702D01*
X125969Y206638D01*
X125971Y206573D01*
X125969Y206508D01*
X125963Y206444D01*
X125953Y206380D01*
X125940Y206316D01*
X125922Y206254D01*
X125901Y206193D01*
X125877Y206133D01*
X125848Y206075D01*
X125816Y206018D01*
X125781Y205964D01*
X125743Y205912D01*
X125701Y205862D01*
X125657Y205815D01*
X125610Y205771D01*
X125560Y205729D01*
X125508Y205691D01*
X125454Y205656D01*
X125397Y205624D01*
X125339Y205595D01*
X125279Y205571D01*
X125218Y205550D01*
X125156Y205532D01*
X125092Y205519D01*
X125028Y205509D01*
X124964Y205503D01*
X124899Y205501D01*
X124899Y205500D02*
X123827Y205500D01*
D12*
X412750Y29210D02*
X491490Y29210D01*
X491490Y161290D01*
X412750Y161290D01*
X367030Y161290D02*
X349250Y161290D01*
X349250Y138430D01*
X349250Y52070D02*
X349250Y29210D01*
X367030Y29210D01*
D10*
X300692Y33909D02*
X300692Y38735D01*
X302032Y38735D01*
X302103Y38733D01*
X302175Y38727D01*
X302245Y38718D01*
X302315Y38705D01*
X302385Y38688D01*
X302453Y38667D01*
X302520Y38643D01*
X302586Y38615D01*
X302650Y38584D01*
X302713Y38549D01*
X302773Y38511D01*
X302832Y38470D01*
X302888Y38426D01*
X302942Y38379D01*
X302993Y38330D01*
X303041Y38277D01*
X303087Y38222D01*
X303129Y38165D01*
X303169Y38105D01*
X303205Y38044D01*
X303238Y37980D01*
X303267Y37915D01*
X303293Y37849D01*
X303316Y37781D01*
X303335Y37712D01*
X303350Y37642D01*
X303361Y37572D01*
X303369Y37501D01*
X303373Y37430D01*
X303373Y37358D01*
X303369Y37287D01*
X303361Y37216D01*
X303350Y37146D01*
X303335Y37076D01*
X303316Y37007D01*
X303293Y36939D01*
X303267Y36873D01*
X303238Y36808D01*
X303205Y36744D01*
X303169Y36683D01*
X303129Y36623D01*
X303087Y36566D01*
X303041Y36511D01*
X302993Y36458D01*
X302942Y36409D01*
X302888Y36362D01*
X302832Y36318D01*
X302773Y36277D01*
X302713Y36239D01*
X302650Y36204D01*
X302586Y36173D01*
X302520Y36145D01*
X302453Y36121D01*
X302385Y36100D01*
X302315Y36083D01*
X302245Y36070D01*
X302175Y36061D01*
X302103Y36055D01*
X302032Y36053D01*
X302032Y36054D02*
X300692Y36054D01*
X302300Y36054D02*
X303373Y33909D01*
X306444Y33909D02*
X306444Y38735D01*
X307784Y38735D01*
X307855Y38733D01*
X307927Y38727D01*
X307997Y38718D01*
X308067Y38705D01*
X308137Y38688D01*
X308205Y38667D01*
X308272Y38643D01*
X308338Y38615D01*
X308402Y38584D01*
X308465Y38549D01*
X308525Y38511D01*
X308584Y38470D01*
X308640Y38426D01*
X308694Y38379D01*
X308745Y38330D01*
X308793Y38277D01*
X308839Y38222D01*
X308881Y38165D01*
X308921Y38105D01*
X308957Y38044D01*
X308990Y37980D01*
X309019Y37915D01*
X309045Y37849D01*
X309068Y37781D01*
X309087Y37712D01*
X309102Y37642D01*
X309113Y37572D01*
X309121Y37501D01*
X309125Y37430D01*
X309125Y37358D01*
X309121Y37287D01*
X309113Y37216D01*
X309102Y37146D01*
X309087Y37076D01*
X309068Y37007D01*
X309045Y36939D01*
X309019Y36873D01*
X308990Y36808D01*
X308957Y36744D01*
X308921Y36683D01*
X308881Y36623D01*
X308839Y36566D01*
X308793Y36511D01*
X308745Y36458D01*
X308694Y36409D01*
X308640Y36362D01*
X308584Y36318D01*
X308525Y36277D01*
X308465Y36239D01*
X308402Y36204D01*
X308338Y36173D01*
X308272Y36145D01*
X308205Y36121D01*
X308137Y36100D01*
X308067Y36083D01*
X307997Y36070D01*
X307927Y36061D01*
X307855Y36055D01*
X307784Y36053D01*
X307784Y36054D02*
X306444Y36054D01*
X311844Y33909D02*
X311844Y38735D01*
X311308Y33909D02*
X312380Y33909D01*
X312380Y38735D02*
X311308Y38735D01*
X314612Y33373D02*
X316757Y33373D01*
X319611Y33909D02*
X319611Y38735D01*
X320951Y38735D01*
X321022Y38733D01*
X321094Y38727D01*
X321164Y38718D01*
X321234Y38705D01*
X321304Y38688D01*
X321372Y38667D01*
X321439Y38643D01*
X321505Y38615D01*
X321569Y38584D01*
X321632Y38549D01*
X321692Y38511D01*
X321751Y38470D01*
X321807Y38426D01*
X321861Y38379D01*
X321912Y38330D01*
X321960Y38277D01*
X322006Y38222D01*
X322048Y38165D01*
X322088Y38105D01*
X322124Y38044D01*
X322157Y37980D01*
X322186Y37915D01*
X322212Y37849D01*
X322235Y37781D01*
X322254Y37712D01*
X322269Y37642D01*
X322280Y37572D01*
X322288Y37501D01*
X322292Y37430D01*
X322292Y37358D01*
X322288Y37287D01*
X322280Y37216D01*
X322269Y37146D01*
X322254Y37076D01*
X322235Y37007D01*
X322212Y36939D01*
X322186Y36873D01*
X322157Y36808D01*
X322124Y36744D01*
X322088Y36683D01*
X322048Y36623D01*
X322006Y36566D01*
X321960Y36511D01*
X321912Y36458D01*
X321861Y36409D01*
X321807Y36362D01*
X321751Y36318D01*
X321692Y36277D01*
X321632Y36239D01*
X321569Y36204D01*
X321505Y36173D01*
X321439Y36145D01*
X321372Y36121D01*
X321304Y36100D01*
X321234Y36083D01*
X321164Y36070D01*
X321094Y36061D01*
X321022Y36055D01*
X320951Y36053D01*
X320951Y36054D02*
X319611Y36054D01*
X324695Y38735D02*
X325768Y33909D01*
X326840Y37126D01*
X327912Y33909D01*
X328985Y38735D01*
X331964Y38735D02*
X331964Y33909D01*
X331964Y38735D02*
X333304Y38735D01*
X333375Y38733D01*
X333447Y38727D01*
X333517Y38718D01*
X333587Y38705D01*
X333657Y38688D01*
X333725Y38667D01*
X333792Y38643D01*
X333858Y38615D01*
X333922Y38584D01*
X333985Y38549D01*
X334045Y38511D01*
X334104Y38470D01*
X334160Y38426D01*
X334214Y38379D01*
X334265Y38330D01*
X334313Y38277D01*
X334359Y38222D01*
X334401Y38165D01*
X334441Y38105D01*
X334477Y38044D01*
X334510Y37980D01*
X334539Y37915D01*
X334565Y37849D01*
X334588Y37781D01*
X334607Y37712D01*
X334622Y37642D01*
X334633Y37572D01*
X334641Y37501D01*
X334645Y37430D01*
X334645Y37358D01*
X334641Y37287D01*
X334633Y37216D01*
X334622Y37146D01*
X334607Y37076D01*
X334588Y37007D01*
X334565Y36939D01*
X334539Y36873D01*
X334510Y36808D01*
X334477Y36744D01*
X334441Y36683D01*
X334401Y36623D01*
X334359Y36566D01*
X334313Y36511D01*
X334265Y36458D01*
X334214Y36409D01*
X334160Y36362D01*
X334104Y36318D01*
X334045Y36277D01*
X333985Y36239D01*
X333922Y36204D01*
X333858Y36173D01*
X333792Y36145D01*
X333725Y36121D01*
X333657Y36100D01*
X333587Y36083D01*
X333517Y36070D01*
X333447Y36061D01*
X333375Y36055D01*
X333304Y36053D01*
X333304Y36054D02*
X331964Y36054D01*
X333573Y36054D02*
X334645Y33909D01*
D12*
X412750Y210820D02*
X491490Y210820D01*
X491490Y342900D01*
X412750Y342900D01*
X367030Y342900D02*
X349250Y342900D01*
X349250Y320040D01*
X349250Y233680D02*
X349250Y210820D01*
X367030Y210820D01*
D10*
X306846Y220147D02*
X306844Y220082D01*
X306838Y220018D01*
X306828Y219954D01*
X306815Y219890D01*
X306797Y219828D01*
X306776Y219767D01*
X306752Y219707D01*
X306723Y219649D01*
X306691Y219592D01*
X306656Y219538D01*
X306618Y219486D01*
X306576Y219436D01*
X306532Y219389D01*
X306485Y219345D01*
X306435Y219303D01*
X306383Y219265D01*
X306329Y219230D01*
X306272Y219198D01*
X306214Y219169D01*
X306154Y219145D01*
X306093Y219124D01*
X306031Y219106D01*
X305967Y219093D01*
X305903Y219083D01*
X305839Y219077D01*
X305774Y219075D01*
X305680Y219077D01*
X305586Y219083D01*
X305492Y219093D01*
X305399Y219106D01*
X305307Y219124D01*
X305215Y219145D01*
X305124Y219170D01*
X305034Y219199D01*
X304946Y219232D01*
X304859Y219268D01*
X304774Y219308D01*
X304690Y219351D01*
X304609Y219398D01*
X304529Y219448D01*
X304451Y219501D01*
X304376Y219558D01*
X304303Y219617D01*
X304233Y219680D01*
X304165Y219745D01*
X304299Y222829D02*
X304301Y222894D01*
X304307Y222958D01*
X304317Y223022D01*
X304330Y223086D01*
X304348Y223148D01*
X304369Y223209D01*
X304393Y223269D01*
X304422Y223327D01*
X304454Y223384D01*
X304489Y223438D01*
X304527Y223490D01*
X304569Y223540D01*
X304613Y223587D01*
X304660Y223631D01*
X304710Y223673D01*
X304762Y223711D01*
X304816Y223746D01*
X304873Y223778D01*
X304931Y223807D01*
X304991Y223831D01*
X305052Y223852D01*
X305114Y223870D01*
X305178Y223883D01*
X305242Y223893D01*
X305306Y223899D01*
X305371Y223901D01*
X305457Y223899D01*
X305543Y223894D01*
X305629Y223884D01*
X305714Y223871D01*
X305799Y223855D01*
X305883Y223835D01*
X305966Y223811D01*
X306048Y223784D01*
X306128Y223753D01*
X306208Y223719D01*
X306285Y223681D01*
X306361Y223640D01*
X306435Y223596D01*
X306507Y223549D01*
X306578Y223499D01*
X304835Y221891D02*
X304782Y221924D01*
X304731Y221961D01*
X304682Y222000D01*
X304635Y222042D01*
X304591Y222087D01*
X304550Y222134D01*
X304511Y222183D01*
X304475Y222235D01*
X304442Y222289D01*
X304413Y222344D01*
X304387Y222401D01*
X304364Y222460D01*
X304344Y222519D01*
X304328Y222580D01*
X304315Y222641D01*
X304306Y222704D01*
X304301Y222766D01*
X304299Y222829D01*
X306310Y221085D02*
X306363Y221052D01*
X306414Y221015D01*
X306463Y220976D01*
X306510Y220934D01*
X306554Y220889D01*
X306595Y220842D01*
X306634Y220793D01*
X306670Y220741D01*
X306703Y220687D01*
X306732Y220632D01*
X306758Y220575D01*
X306781Y220516D01*
X306801Y220457D01*
X306817Y220396D01*
X306830Y220335D01*
X306839Y220272D01*
X306844Y220210D01*
X306846Y220147D01*
X306310Y221086D02*
X304835Y221890D01*
X309798Y223901D02*
X309798Y219075D01*
X309798Y223901D02*
X311138Y223901D01*
X311209Y223899D01*
X311281Y223893D01*
X311351Y223884D01*
X311421Y223871D01*
X311491Y223854D01*
X311559Y223833D01*
X311626Y223809D01*
X311692Y223781D01*
X311756Y223750D01*
X311819Y223715D01*
X311879Y223677D01*
X311938Y223636D01*
X311994Y223592D01*
X312048Y223545D01*
X312099Y223496D01*
X312147Y223443D01*
X312193Y223388D01*
X312235Y223331D01*
X312275Y223271D01*
X312311Y223210D01*
X312344Y223146D01*
X312373Y223081D01*
X312399Y223015D01*
X312422Y222947D01*
X312441Y222878D01*
X312456Y222808D01*
X312467Y222738D01*
X312475Y222667D01*
X312479Y222596D01*
X312479Y222524D01*
X312475Y222453D01*
X312467Y222382D01*
X312456Y222312D01*
X312441Y222242D01*
X312422Y222173D01*
X312399Y222105D01*
X312373Y222039D01*
X312344Y221974D01*
X312311Y221910D01*
X312275Y221849D01*
X312235Y221789D01*
X312193Y221732D01*
X312147Y221677D01*
X312099Y221624D01*
X312048Y221575D01*
X311994Y221528D01*
X311938Y221484D01*
X311879Y221443D01*
X311819Y221405D01*
X311756Y221370D01*
X311692Y221339D01*
X311626Y221311D01*
X311559Y221287D01*
X311491Y221266D01*
X311421Y221249D01*
X311351Y221236D01*
X311281Y221227D01*
X311209Y221221D01*
X311138Y221219D01*
X311138Y221220D02*
X309798Y221220D01*
X315157Y219075D02*
X315157Y223901D01*
X315157Y219075D02*
X317302Y219075D01*
X319429Y218539D02*
X321574Y218539D01*
X324428Y219075D02*
X324428Y223901D01*
X325769Y223901D01*
X325840Y223899D01*
X325912Y223893D01*
X325982Y223884D01*
X326052Y223871D01*
X326122Y223854D01*
X326190Y223833D01*
X326257Y223809D01*
X326323Y223781D01*
X326387Y223750D01*
X326450Y223715D01*
X326510Y223677D01*
X326569Y223636D01*
X326625Y223592D01*
X326679Y223545D01*
X326730Y223496D01*
X326778Y223443D01*
X326824Y223388D01*
X326866Y223331D01*
X326906Y223271D01*
X326942Y223210D01*
X326975Y223146D01*
X327004Y223081D01*
X327030Y223015D01*
X327053Y222947D01*
X327072Y222878D01*
X327087Y222808D01*
X327098Y222738D01*
X327106Y222667D01*
X327110Y222596D01*
X327110Y222524D01*
X327106Y222453D01*
X327098Y222382D01*
X327087Y222312D01*
X327072Y222242D01*
X327053Y222173D01*
X327030Y222105D01*
X327004Y222039D01*
X326975Y221974D01*
X326942Y221910D01*
X326906Y221849D01*
X326866Y221789D01*
X326824Y221732D01*
X326778Y221677D01*
X326730Y221624D01*
X326679Y221575D01*
X326625Y221528D01*
X326569Y221484D01*
X326510Y221443D01*
X326450Y221405D01*
X326387Y221370D01*
X326323Y221339D01*
X326257Y221311D01*
X326190Y221287D01*
X326122Y221266D01*
X326052Y221249D01*
X325982Y221236D01*
X325912Y221227D01*
X325840Y221221D01*
X325769Y221219D01*
X325769Y221220D02*
X324428Y221220D01*
X329512Y223901D02*
X330585Y219075D01*
X331657Y222292D01*
X332730Y219075D01*
X333802Y223901D01*
X336781Y223901D02*
X336781Y219075D01*
X336781Y223901D02*
X338122Y223901D01*
X338193Y223899D01*
X338265Y223893D01*
X338335Y223884D01*
X338405Y223871D01*
X338475Y223854D01*
X338543Y223833D01*
X338610Y223809D01*
X338676Y223781D01*
X338740Y223750D01*
X338803Y223715D01*
X338863Y223677D01*
X338922Y223636D01*
X338978Y223592D01*
X339032Y223545D01*
X339083Y223496D01*
X339131Y223443D01*
X339177Y223388D01*
X339219Y223331D01*
X339259Y223271D01*
X339295Y223210D01*
X339328Y223146D01*
X339357Y223081D01*
X339383Y223015D01*
X339406Y222947D01*
X339425Y222878D01*
X339440Y222808D01*
X339451Y222738D01*
X339459Y222667D01*
X339463Y222596D01*
X339463Y222524D01*
X339459Y222453D01*
X339451Y222382D01*
X339440Y222312D01*
X339425Y222242D01*
X339406Y222173D01*
X339383Y222105D01*
X339357Y222039D01*
X339328Y221974D01*
X339295Y221910D01*
X339259Y221849D01*
X339219Y221789D01*
X339177Y221732D01*
X339131Y221677D01*
X339083Y221624D01*
X339032Y221575D01*
X338978Y221528D01*
X338922Y221484D01*
X338863Y221443D01*
X338803Y221405D01*
X338740Y221370D01*
X338676Y221339D01*
X338610Y221311D01*
X338543Y221287D01*
X338475Y221266D01*
X338405Y221249D01*
X338335Y221236D01*
X338265Y221227D01*
X338193Y221221D01*
X338122Y221219D01*
X338122Y221220D02*
X336781Y221220D01*
X338390Y221220D02*
X339462Y219075D01*
X58420Y67310D02*
X2540Y67310D01*
X2540Y143510D02*
X58420Y143510D01*
X2540Y143510D02*
X2540Y67310D01*
X58420Y130810D02*
X58420Y143510D01*
X58420Y130810D02*
X58420Y80010D01*
X58420Y67310D01*
X58420Y80010D02*
X45720Y80010D01*
X45720Y130810D01*
X58420Y130810D01*
X15882Y57785D02*
X15882Y52959D01*
X18027Y52959D01*
X20636Y52959D02*
X20636Y57785D01*
X20636Y52959D02*
X22781Y52959D01*
X26233Y52959D02*
X27305Y52959D01*
X26233Y52959D02*
X26168Y52961D01*
X26104Y52967D01*
X26040Y52977D01*
X25976Y52990D01*
X25914Y53008D01*
X25853Y53029D01*
X25793Y53053D01*
X25735Y53082D01*
X25678Y53114D01*
X25624Y53149D01*
X25572Y53187D01*
X25522Y53229D01*
X25475Y53273D01*
X25431Y53320D01*
X25389Y53370D01*
X25351Y53422D01*
X25316Y53476D01*
X25284Y53533D01*
X25255Y53591D01*
X25231Y53651D01*
X25210Y53712D01*
X25192Y53774D01*
X25179Y53838D01*
X25169Y53902D01*
X25163Y53966D01*
X25161Y54031D01*
X25160Y54031D02*
X25160Y56713D01*
X25161Y56713D02*
X25163Y56778D01*
X25169Y56842D01*
X25179Y56906D01*
X25192Y56970D01*
X25210Y57032D01*
X25231Y57093D01*
X25255Y57153D01*
X25284Y57211D01*
X25316Y57268D01*
X25351Y57322D01*
X25389Y57374D01*
X25431Y57424D01*
X25475Y57471D01*
X25522Y57515D01*
X25572Y57557D01*
X25624Y57595D01*
X25678Y57630D01*
X25735Y57662D01*
X25793Y57691D01*
X25853Y57715D01*
X25914Y57736D01*
X25976Y57754D01*
X26040Y57767D01*
X26104Y57777D01*
X26168Y57783D01*
X26233Y57785D01*
X27305Y57785D01*
X201930Y60960D02*
X201930Y5080D01*
X125730Y5080D02*
X125730Y60960D01*
X125730Y5080D02*
X201930Y5080D01*
X138430Y60960D02*
X125730Y60960D01*
X138430Y60960D02*
X189230Y60960D01*
X201930Y60960D01*
X189230Y60960D02*
X189230Y48260D01*
X138430Y48260D01*
X138430Y60960D01*
X84654Y17145D02*
X85726Y12319D01*
X86799Y15536D01*
X87871Y12319D01*
X88944Y17145D01*
X93102Y12319D02*
X93167Y12321D01*
X93231Y12327D01*
X93295Y12337D01*
X93359Y12350D01*
X93421Y12368D01*
X93482Y12389D01*
X93542Y12413D01*
X93600Y12442D01*
X93657Y12474D01*
X93711Y12509D01*
X93763Y12547D01*
X93813Y12589D01*
X93860Y12633D01*
X93904Y12680D01*
X93946Y12730D01*
X93984Y12782D01*
X94019Y12836D01*
X94051Y12893D01*
X94080Y12951D01*
X94104Y13011D01*
X94125Y13072D01*
X94143Y13134D01*
X94156Y13198D01*
X94166Y13262D01*
X94172Y13326D01*
X94174Y13391D01*
X93102Y12319D02*
X93008Y12321D01*
X92914Y12327D01*
X92820Y12337D01*
X92727Y12350D01*
X92635Y12368D01*
X92543Y12389D01*
X92452Y12414D01*
X92362Y12443D01*
X92274Y12476D01*
X92187Y12512D01*
X92102Y12552D01*
X92018Y12595D01*
X91937Y12642D01*
X91857Y12692D01*
X91779Y12745D01*
X91704Y12802D01*
X91631Y12861D01*
X91561Y12924D01*
X91493Y12989D01*
X91628Y16073D02*
X91630Y16138D01*
X91636Y16202D01*
X91646Y16266D01*
X91659Y16330D01*
X91677Y16392D01*
X91698Y16453D01*
X91722Y16513D01*
X91751Y16571D01*
X91783Y16628D01*
X91818Y16682D01*
X91856Y16734D01*
X91898Y16784D01*
X91942Y16831D01*
X91989Y16875D01*
X92039Y16917D01*
X92091Y16955D01*
X92145Y16990D01*
X92202Y17022D01*
X92260Y17051D01*
X92320Y17075D01*
X92381Y17096D01*
X92443Y17114D01*
X92507Y17127D01*
X92571Y17137D01*
X92635Y17143D01*
X92700Y17145D01*
X92786Y17143D01*
X92872Y17138D01*
X92958Y17128D01*
X93043Y17115D01*
X93128Y17099D01*
X93212Y17079D01*
X93295Y17055D01*
X93377Y17028D01*
X93457Y16997D01*
X93537Y16963D01*
X93614Y16925D01*
X93690Y16884D01*
X93764Y16840D01*
X93836Y16793D01*
X93907Y16743D01*
X92163Y15135D02*
X92110Y15168D01*
X92059Y15205D01*
X92010Y15244D01*
X91963Y15286D01*
X91919Y15331D01*
X91878Y15378D01*
X91839Y15427D01*
X91803Y15479D01*
X91770Y15533D01*
X91741Y15588D01*
X91715Y15645D01*
X91692Y15704D01*
X91672Y15763D01*
X91656Y15824D01*
X91643Y15885D01*
X91634Y15948D01*
X91629Y16010D01*
X91627Y16073D01*
X93638Y14329D02*
X93691Y14296D01*
X93742Y14259D01*
X93791Y14220D01*
X93838Y14178D01*
X93882Y14133D01*
X93923Y14086D01*
X93962Y14037D01*
X93998Y13985D01*
X94031Y13931D01*
X94060Y13876D01*
X94086Y13819D01*
X94109Y13760D01*
X94129Y13701D01*
X94145Y13640D01*
X94158Y13579D01*
X94167Y13516D01*
X94172Y13454D01*
X94174Y13391D01*
X93638Y14330D02*
X92164Y15134D01*
X98271Y17145D02*
X98339Y17143D01*
X98406Y17137D01*
X98473Y17128D01*
X98540Y17115D01*
X98605Y17098D01*
X98670Y17077D01*
X98733Y17053D01*
X98795Y17025D01*
X98855Y16994D01*
X98913Y16960D01*
X98969Y16922D01*
X99024Y16882D01*
X99075Y16838D01*
X99124Y16791D01*
X99171Y16742D01*
X99215Y16691D01*
X99255Y16636D01*
X99293Y16580D01*
X99327Y16522D01*
X99358Y16462D01*
X99386Y16400D01*
X99410Y16337D01*
X99431Y16272D01*
X99448Y16207D01*
X99461Y16140D01*
X99470Y16073D01*
X99476Y16006D01*
X99478Y15938D01*
X98271Y17145D02*
X98193Y17143D01*
X98115Y17137D01*
X98038Y17127D01*
X97961Y17114D01*
X97885Y17096D01*
X97810Y17075D01*
X97736Y17050D01*
X97664Y17021D01*
X97593Y16989D01*
X97524Y16953D01*
X97456Y16914D01*
X97391Y16871D01*
X97328Y16825D01*
X97267Y16776D01*
X97209Y16724D01*
X97154Y16669D01*
X97101Y16612D01*
X97052Y16552D01*
X97005Y16489D01*
X96962Y16425D01*
X96922Y16358D01*
X96885Y16289D01*
X96852Y16218D01*
X96822Y16146D01*
X96796Y16073D01*
X99076Y15000D02*
X99125Y15049D01*
X99172Y15101D01*
X99215Y15156D01*
X99256Y15213D01*
X99294Y15272D01*
X99328Y15333D01*
X99359Y15396D01*
X99387Y15460D01*
X99411Y15526D01*
X99431Y15592D01*
X99448Y15660D01*
X99461Y15729D01*
X99470Y15798D01*
X99476Y15868D01*
X99478Y15938D01*
X99076Y15000D02*
X96797Y12319D01*
X99478Y12319D01*
X102283Y13660D02*
X102285Y13731D01*
X102291Y13803D01*
X102300Y13873D01*
X102313Y13943D01*
X102330Y14013D01*
X102351Y14081D01*
X102375Y14148D01*
X102403Y14214D01*
X102434Y14278D01*
X102469Y14341D01*
X102507Y14401D01*
X102548Y14460D01*
X102592Y14516D01*
X102639Y14570D01*
X102688Y14621D01*
X102741Y14669D01*
X102796Y14715D01*
X102853Y14757D01*
X102913Y14797D01*
X102974Y14833D01*
X103038Y14866D01*
X103103Y14895D01*
X103169Y14921D01*
X103237Y14944D01*
X103306Y14963D01*
X103376Y14978D01*
X103446Y14989D01*
X103517Y14997D01*
X103588Y15001D01*
X103660Y15001D01*
X103731Y14997D01*
X103802Y14989D01*
X103872Y14978D01*
X103942Y14963D01*
X104011Y14944D01*
X104079Y14921D01*
X104145Y14895D01*
X104210Y14866D01*
X104274Y14833D01*
X104335Y14797D01*
X104395Y14757D01*
X104452Y14715D01*
X104507Y14669D01*
X104560Y14621D01*
X104609Y14570D01*
X104656Y14516D01*
X104700Y14460D01*
X104741Y14401D01*
X104779Y14341D01*
X104814Y14278D01*
X104845Y14214D01*
X104873Y14148D01*
X104897Y14081D01*
X104918Y14013D01*
X104935Y13943D01*
X104948Y13873D01*
X104957Y13803D01*
X104963Y13731D01*
X104965Y13660D01*
X104963Y13589D01*
X104957Y13517D01*
X104948Y13447D01*
X104935Y13377D01*
X104918Y13307D01*
X104897Y13239D01*
X104873Y13172D01*
X104845Y13106D01*
X104814Y13042D01*
X104779Y12979D01*
X104741Y12919D01*
X104700Y12860D01*
X104656Y12804D01*
X104609Y12750D01*
X104560Y12699D01*
X104507Y12651D01*
X104452Y12605D01*
X104395Y12563D01*
X104335Y12523D01*
X104274Y12487D01*
X104210Y12454D01*
X104145Y12425D01*
X104079Y12399D01*
X104011Y12376D01*
X103942Y12357D01*
X103872Y12342D01*
X103802Y12331D01*
X103731Y12323D01*
X103660Y12319D01*
X103588Y12319D01*
X103517Y12323D01*
X103446Y12331D01*
X103376Y12342D01*
X103306Y12357D01*
X103237Y12376D01*
X103169Y12399D01*
X103103Y12425D01*
X103038Y12454D01*
X102974Y12487D01*
X102913Y12523D01*
X102853Y12563D01*
X102796Y12605D01*
X102741Y12651D01*
X102688Y12699D01*
X102639Y12750D01*
X102592Y12804D01*
X102548Y12860D01*
X102507Y12919D01*
X102469Y12979D01*
X102434Y13042D01*
X102403Y13106D01*
X102375Y13172D01*
X102351Y13239D01*
X102330Y13307D01*
X102313Y13377D01*
X102300Y13447D01*
X102291Y13517D01*
X102285Y13589D01*
X102283Y13660D01*
X102552Y16073D02*
X102554Y16138D01*
X102560Y16202D01*
X102570Y16266D01*
X102583Y16330D01*
X102601Y16392D01*
X102622Y16453D01*
X102646Y16513D01*
X102675Y16571D01*
X102707Y16628D01*
X102742Y16682D01*
X102780Y16734D01*
X102822Y16784D01*
X102866Y16831D01*
X102913Y16875D01*
X102963Y16917D01*
X103015Y16955D01*
X103069Y16990D01*
X103126Y17022D01*
X103184Y17051D01*
X103244Y17075D01*
X103305Y17096D01*
X103367Y17114D01*
X103431Y17127D01*
X103495Y17137D01*
X103559Y17143D01*
X103624Y17145D01*
X103689Y17143D01*
X103753Y17137D01*
X103817Y17127D01*
X103881Y17114D01*
X103943Y17096D01*
X104004Y17075D01*
X104064Y17051D01*
X104122Y17022D01*
X104179Y16990D01*
X104233Y16955D01*
X104285Y16917D01*
X104335Y16875D01*
X104382Y16831D01*
X104426Y16784D01*
X104468Y16734D01*
X104506Y16682D01*
X104541Y16628D01*
X104573Y16571D01*
X104602Y16513D01*
X104626Y16453D01*
X104647Y16392D01*
X104665Y16330D01*
X104678Y16266D01*
X104688Y16202D01*
X104694Y16138D01*
X104696Y16073D01*
X104694Y16008D01*
X104688Y15944D01*
X104678Y15880D01*
X104665Y15816D01*
X104647Y15754D01*
X104626Y15693D01*
X104602Y15633D01*
X104573Y15575D01*
X104541Y15518D01*
X104506Y15464D01*
X104468Y15412D01*
X104426Y15362D01*
X104382Y15315D01*
X104335Y15271D01*
X104285Y15229D01*
X104233Y15191D01*
X104179Y15156D01*
X104122Y15124D01*
X104064Y15095D01*
X104004Y15071D01*
X103943Y15050D01*
X103881Y15032D01*
X103817Y15019D01*
X103753Y15009D01*
X103689Y15003D01*
X103624Y15001D01*
X103559Y15003D01*
X103495Y15009D01*
X103431Y15019D01*
X103367Y15032D01*
X103305Y15050D01*
X103244Y15071D01*
X103184Y15095D01*
X103126Y15124D01*
X103069Y15156D01*
X103015Y15191D01*
X102963Y15229D01*
X102913Y15271D01*
X102866Y15315D01*
X102822Y15362D01*
X102780Y15412D01*
X102742Y15464D01*
X102707Y15518D01*
X102675Y15575D01*
X102646Y15633D01*
X102622Y15693D01*
X102601Y15754D01*
X102583Y15816D01*
X102570Y15880D01*
X102560Y15944D01*
X102554Y16008D01*
X102552Y16073D01*
X107769Y16073D02*
X109110Y17145D01*
X109110Y12319D01*
X107769Y12319D02*
X110451Y12319D01*
X112988Y12319D02*
X116205Y17145D01*
X112988Y17145D02*
X116205Y12319D01*
D12*
X78830Y197130D02*
X78830Y309130D01*
X78830Y197130D02*
X13830Y197130D01*
X3830Y197130D01*
X3830Y309130D01*
X13830Y309130D01*
X78830Y309130D01*
X13830Y309130D02*
X13830Y197130D01*
D10*
X18415Y188341D02*
X18415Y183515D01*
X18415Y188341D02*
X19756Y188341D01*
X19827Y188339D01*
X19899Y188333D01*
X19969Y188324D01*
X20039Y188311D01*
X20109Y188294D01*
X20177Y188273D01*
X20244Y188249D01*
X20310Y188221D01*
X20374Y188190D01*
X20437Y188155D01*
X20497Y188117D01*
X20556Y188076D01*
X20612Y188032D01*
X20666Y187985D01*
X20717Y187936D01*
X20765Y187883D01*
X20811Y187828D01*
X20853Y187771D01*
X20893Y187711D01*
X20929Y187650D01*
X20962Y187586D01*
X20991Y187521D01*
X21017Y187455D01*
X21040Y187387D01*
X21059Y187318D01*
X21074Y187248D01*
X21085Y187178D01*
X21093Y187107D01*
X21097Y187036D01*
X21097Y186964D01*
X21093Y186893D01*
X21085Y186822D01*
X21074Y186752D01*
X21059Y186682D01*
X21040Y186613D01*
X21017Y186545D01*
X20991Y186479D01*
X20962Y186414D01*
X20929Y186350D01*
X20893Y186289D01*
X20853Y186229D01*
X20811Y186172D01*
X20765Y186117D01*
X20717Y186064D01*
X20666Y186015D01*
X20612Y185968D01*
X20556Y185924D01*
X20497Y185883D01*
X20437Y185845D01*
X20374Y185810D01*
X20310Y185779D01*
X20244Y185751D01*
X20177Y185727D01*
X20109Y185706D01*
X20039Y185689D01*
X19969Y185676D01*
X19899Y185667D01*
X19827Y185661D01*
X19756Y185659D01*
X19756Y185660D02*
X18415Y185660D01*
X23499Y188341D02*
X24572Y183515D01*
X25644Y186732D01*
X26717Y183515D01*
X27789Y188341D01*
X30768Y188341D02*
X30768Y183515D01*
X30768Y188341D02*
X32109Y188341D01*
X32180Y188339D01*
X32252Y188333D01*
X32322Y188324D01*
X32392Y188311D01*
X32462Y188294D01*
X32530Y188273D01*
X32597Y188249D01*
X32663Y188221D01*
X32727Y188190D01*
X32790Y188155D01*
X32850Y188117D01*
X32909Y188076D01*
X32965Y188032D01*
X33019Y187985D01*
X33070Y187936D01*
X33118Y187883D01*
X33164Y187828D01*
X33206Y187771D01*
X33246Y187711D01*
X33282Y187650D01*
X33315Y187586D01*
X33344Y187521D01*
X33370Y187455D01*
X33393Y187387D01*
X33412Y187318D01*
X33427Y187248D01*
X33438Y187178D01*
X33446Y187107D01*
X33450Y187036D01*
X33450Y186964D01*
X33446Y186893D01*
X33438Y186822D01*
X33427Y186752D01*
X33412Y186682D01*
X33393Y186613D01*
X33370Y186545D01*
X33344Y186479D01*
X33315Y186414D01*
X33282Y186350D01*
X33246Y186289D01*
X33206Y186229D01*
X33164Y186172D01*
X33118Y186117D01*
X33070Y186064D01*
X33019Y186015D01*
X32965Y185968D01*
X32909Y185924D01*
X32850Y185883D01*
X32790Y185845D01*
X32727Y185810D01*
X32663Y185779D01*
X32597Y185751D01*
X32530Y185727D01*
X32462Y185706D01*
X32392Y185689D01*
X32322Y185676D01*
X32252Y185667D01*
X32180Y185661D01*
X32109Y185659D01*
X32109Y185660D02*
X30768Y185660D01*
X32377Y185660D02*
X33449Y183515D01*
M02*
