G04 EAGLE Gerber RS-274X export*
G75*
%MOMM*%
%FSLAX34Y34*%
%LPD*%
%INSoldermask Top*%
%IPPOS*%
%AMOC8*
5,1,8,0,0,1.08239X$1,22.5*%
G01*
%ADD10C,2.133600*%
%ADD11R,2.133600X2.133600*%
%ADD12C,0.505344*%
%ADD13R,1.103200X1.003200*%
%ADD14R,1.203200X1.303200*%
%ADD15R,1.303200X1.203200*%
%ADD16C,3.530600*%
%ADD17R,3.203200X1.103200*%
%ADD18R,2.082800X2.082800*%
%ADD19C,2.082800*%
%ADD20R,2.235200X2.235200*%
%ADD21C,2.235200*%
%ADD22C,1.009600*%
%ADD23R,3.203200X3.203200*%


D10*
X201930Y327260D03*
D11*
X201930Y277260D03*
D12*
X117910Y237170D02*
X117910Y230190D01*
X110930Y230190D01*
X110930Y237170D01*
X117910Y237170D01*
X117910Y234990D02*
X110930Y234990D01*
X135450Y237170D02*
X135450Y230190D01*
X128470Y230190D01*
X128470Y237170D01*
X135450Y237170D01*
X135450Y234990D02*
X128470Y234990D01*
D13*
X153830Y121260D03*
X153830Y102260D03*
X174830Y111760D03*
D14*
X125730Y145660D03*
X125730Y128660D03*
X201930Y145660D03*
X201930Y128660D03*
D15*
X130420Y215900D03*
X113420Y215900D03*
D16*
X387830Y160909D03*
X387830Y29591D03*
D17*
X345710Y85250D03*
X345710Y60250D03*
X345710Y105250D03*
X345710Y130250D03*
D16*
X387830Y342519D03*
X387830Y211201D03*
D17*
X345710Y266860D03*
X345710Y241860D03*
X345710Y286860D03*
X345710Y311860D03*
D18*
X33020Y80010D03*
D19*
X33020Y105410D03*
X33020Y130810D03*
D18*
X189230Y35560D03*
D19*
X163830Y35560D03*
X138430Y35560D03*
D20*
X36830Y278130D03*
D21*
X36830Y228130D03*
D22*
X205740Y106680D03*
D23*
X434340Y186690D03*
X26670Y26670D03*
X26670Y350520D03*
M02*
